<svg xmlns="http://www.w3.org/2000/svg" width="389" height="403" viewBox="0 0 389 403">
<g>
<path d="M 0.00 201.50 L 0.00 0.00 L 194.50 0.00 L 389.00 0.00 L 389.00 201.50 L 389.00 403.00 L 194.50 403.00 L 0.00 403.00 L 0.00 201.50 ZM 136.95 338.03 C137.94,337.50 139.82,334.07 141.11,330.41 C142.40,326.75 143.98,323.56 144.63,323.31 C145.28,323.06 150.47,323.79 156.16,324.92 C182.78,330.23 210.86,330.23 236.86,324.91 C242.01,323.86 246.80,323.00 247.50,323.00 C248.21,323.00 249.99,326.04 251.46,329.75 C252.92,333.46 254.86,337.06 255.75,337.75 C258.24,339.66 264.64,339.25 275.05,336.52 C280.25,335.15 285.74,334.03 287.25,334.02 C288.76,334.01 290.00,333.80 290.00,333.55 C290.00,331.95 284.35,315.68 282.26,311.27 C278.81,303.99 275.71,301.67 270.47,302.45 C266.58,303.04 266.33,302.91 264.73,299.55 C263.13,296.21 263.14,296.00 264.93,295.04 C266.77,294.05 266.77,293.88 264.83,287.43 C262.92,281.05 262.92,280.78 264.68,279.40 C268.87,276.10 269.40,276.12 275.44,279.67 L 281.36 283.16 L 286.71 277.68 L 292.06 272.20 L 288.63 266.36 C285.14,260.43 285.12,259.84 288.31,255.79 C289.54,254.24 290.12,254.21 295.08,255.53 C298.06,256.33 301.20,256.98 302.05,256.99 C302.94,256.99 305.07,254.26 307.05,250.54 L 310.50 244.08 L 305.66 239.17 L 300.82 234.25 L 302.41 231.17 C303.92,228.25 304.36,228.08 310.70,227.80 L 317.39 227.50 L 319.18 221.50 C320.17,218.20 320.98,214.80 320.99,213.95 C320.99,213.10 318.64,211.06 315.76,209.42 C310.43,206.37 309.37,204.64 310.39,200.57 C310.84,198.77 312.30,197.95 317.48,196.54 L 324.00 194.78 L 324.00 187.05 L 324.00 179.32 L 318.38 177.97 C311.77,176.39 310.00,174.90 310.00,170.94 C310.00,168.44 310.80,167.57 315.50,164.91 C318.72,163.09 320.99,161.12 320.99,160.15 C320.98,159.24 320.17,155.83 319.20,152.58 L 317.43 146.65 L 310.75 146.89 L 304.08 147.13 L 302.51 143.36 L 300.93 139.59 L 305.85 134.67 L 310.77 129.76 L 307.19 123.63 C305.23,120.26 303.46,117.30 303.27,117.05 C303.09,116.80 299.95,117.39 296.31,118.37 L 289.68 120.13 L 287.38 117.32 C286.11,115.77 285.07,114.28 285.06,114.00 C285.05,113.72 286.59,111.03 288.48,108.00 L 291.91 102.50 L 286.74 97.25 C283.90,94.36 281.15,92.00 280.64,92.00 C280.14,92.00 277.53,93.35 274.85,95.00 C272.16,96.65 269.64,97.98 269.23,97.96 C268.83,97.94 267.27,96.92 265.76,95.68 L 263.02 93.44 L 264.93 86.76 L 266.84 80.08 L 260.51 76.54 C257.02,74.59 253.79,73.00 253.31,73.00 C252.84,73.00 250.52,75.05 248.16,77.56 C244.01,81.97 243.76,82.08 240.48,80.99 L 237.09 79.87 L 236.79 72.69 L 236.50 65.50 L 230.50 63.83 C227.20,62.91 223.82,62.12 222.98,62.08 C222.11,62.03 220.03,64.60 218.13,68.07 C215.79,72.31 214.35,73.96 213.31,73.57 C212.50,73.26 210.80,73.00 209.53,73.00 C207.50,73.00 207.01,72.15 205.50,66.00 L 203.78 59.00 L 196.11 59.00 L 188.44 59.00 L 186.67 65.90 C184.92,72.66 184.82,72.80 181.31,73.21 C177.91,73.61 177.57,73.36 174.22,68.06 C172.29,65.00 170.56,62.33 170.39,62.12 C170.21,61.91 166.90,62.56 163.03,63.56 L 156.00 65.39 L 156.00 72.49 L 156.00 79.60 L 152.39 80.90 C148.79,82.20 148.76,82.19 143.89,77.39 L 139.00 72.57 L 133.44 75.54 C125.61,79.72 125.46,80.00 127.37,86.82 C129.43,94.15 129.53,93.49 125.96,96.03 L 122.93 98.19 L 117.09 94.71 L 111.25 91.23 L 105.74 96.74 L 100.23 102.25 L 103.71 108.09 L 107.19 113.93 L 105.03 116.96 C102.49,120.53 103.17,120.43 95.69,118.33 C88.93,116.44 88.96,116.41 83.96,125.57 L 81.55 129.98 L 86.47 134.97 L 91.39 139.96 L 89.68 143.55 L 87.97 147.14 L 81.30 146.90 L 74.64 146.65 L 72.82 153.08 C71.82,156.61 71.01,160.04 71.00,160.69 C71.00,161.35 73.60,163.27 76.77,164.96 C82.47,168.00 82.54,168.09 82.17,171.96 L 81.80 175.89 L 74.90 177.67 L 68.00 179.44 L 68.00 187.11 L 68.00 194.78 L 74.90 196.48 L 81.81 198.17 L 82.18 202.14 C82.56,206.05 82.49,206.15 76.78,209.28 C73.51,211.08 71.03,213.12 71.08,213.98 C71.12,214.82 71.92,218.20 72.84,221.50 L 74.52 227.50 L 81.51 227.62 L 88.50 227.73 L 89.91 231.42 L 91.32 235.11 L 86.41 239.47 L 81.50 243.83 L 84.50 249.50 C88.65,257.33 89.11,257.60 95.31,256.03 C98.17,255.31 100.97,254.54 101.54,254.33 C102.11,254.12 103.60,255.32 104.84,257.00 L 107.10 260.06 L 103.82 266.03 L 100.53 272.01 L 106.02 277.47 L 111.50 282.93 L 117.00 279.49 C120.03,277.59 122.72,276.05 123.00,276.06 C123.28,276.07 124.77,277.11 126.32,278.38 L 129.13 280.68 L 127.36 287.33 C125.68,293.64 125.68,294.04 127.33,295.25 C128.81,296.33 128.90,297.00 127.92,299.80 C126.82,302.97 126.62,303.07 122.62,302.47 C117.66,301.72 114.03,304.05 111.09,309.84 C109.04,313.89 103.00,331.08 103.00,332.87 C103.00,333.49 104.24,334.02 105.75,334.03 C107.26,334.05 112.55,335.16 117.50,336.49 C127.09,339.06 133.99,339.61 136.95,338.03 ZM 126.83 336.97 C124.26,336.54 119.69,335.47 116.68,334.59 C113.66,333.72 109.76,333.00 108.02,333.00 C104.95,333.00 104.87,332.88 105.55,329.75 C106.71,324.47 111.97,311.34 114.35,307.79 C115.99,305.36 117.43,304.42 119.91,304.18 C121.75,304.00 123.67,304.27 124.18,304.78 C124.75,305.35 123.69,309.26 121.42,314.92 C119.11,320.69 118.09,324.49 118.68,325.08 C119.20,325.60 122.61,326.85 126.26,327.86 C132.94,329.72 138.00,332.32 138.00,333.90 C138.00,336.61 132.99,337.99 126.83,336.97 ZM 258.33 337.20 C255.75,336.82 254.53,334.27 256.06,332.43 C257.25,330.99 263.05,328.69 269.71,327.01 C272.02,326.42 274.17,325.54 274.48,325.03 C274.79,324.53 273.40,320.01 271.39,314.99 C267.38,304.98 267.59,303.65 273.09,304.18 C275.56,304.42 277.01,305.36 278.63,307.77 C280.71,310.87 285.96,324.36 287.38,330.25 C288.00,332.83 287.83,333.00 284.70,333.00 C282.86,333.00 278.92,333.73 275.93,334.62 C269.72,336.47 261.51,337.67 258.33,337.20 ZM 176.00 326.32 C167.45,325.43 157.51,323.70 144.72,320.86 C136.71,319.08 129.07,317.95 126.47,318.16 C124.01,318.35 122.00,318.40 122.00,318.25 C122.00,316.20 133.59,292.01 135.21,290.67 C137.94,288.41 140.25,288.80 151.91,293.46 C166.35,299.24 175.73,301.14 192.65,301.72 C205.69,302.17 209.31,301.93 218.65,300.03 C224.62,298.81 233.55,296.26 238.50,294.34 C252.43,288.96 254.58,288.50 257.31,290.28 C259.23,291.54 264.37,302.06 270.62,317.50 C270.87,318.11 269.15,318.37 266.22,318.17 C263.26,317.96 255.29,319.19 245.46,321.37 C236.68,323.31 225.13,325.37 219.79,325.95 C210.78,326.92 184.04,327.15 176.00,326.32 ZM 202.51 318.01 C202.15,317.43 202.59,317.29 203.60,317.68 C205.02,318.22 205.19,317.90 204.63,315.66 C204.23,314.08 204.38,313.00 204.98,313.00 C205.54,313.00 206.06,314.24 206.14,315.75 C206.27,318.45 206.28,318.46 206.74,316.00 C207.20,313.50 208.61,312.02 210.50,312.05 C211.05,312.05 210.70,312.52 209.73,313.09 C208.75,313.66 208.22,314.55 208.55,315.08 C208.87,315.60 209.61,315.74 210.18,315.39 C210.75,315.03 211.62,315.36 212.10,316.12 C212.71,317.09 212.99,316.61 213.05,314.50 C213.12,312.08 213.29,311.87 213.89,313.42 C214.31,314.48 215.63,315.42 216.82,315.51 C218.48,315.63 219.00,315.11 219.00,313.33 C219.00,312.05 219.48,311.00 220.06,311.00 C220.64,311.00 220.81,311.50 220.43,312.11 C219.71,313.29 221.64,314.96 223.75,314.98 C224.44,314.99 225.05,313.76 225.12,312.25 C225.20,310.17 225.35,309.99 225.71,311.50 C226.59,315.14 228.27,315.78 227.51,312.18 C226.84,309.01 226.90,308.92 228.91,310.17 C231.11,311.55 231.90,313.62 229.75,312.41 C228.75,311.85 228.75,311.98 229.75,313.05 C230.76,314.14 231.24,314.16 232.25,313.13 C233.25,312.12 233.18,311.63 231.91,310.68 C231.04,310.03 230.50,308.97 230.72,308.33 C231.01,307.47 229.40,307.55 224.81,308.62 C221.34,309.43 214.03,310.52 208.57,311.04 C200.03,311.85 198.40,311.77 196.90,310.41 C193.84,307.64 191.54,308.99 191.19,313.76 C191.01,316.27 191.32,318.00 191.94,318.00 C192.52,318.00 193.00,316.88 193.00,315.50 C193.00,314.12 193.41,313.00 193.91,313.00 C194.40,313.00 194.59,313.84 194.33,314.86 C193.99,316.15 194.49,316.89 195.92,317.27 C197.60,317.71 198.00,317.35 198.00,315.41 C198.00,314.08 198.45,313.00 199.00,313.00 C199.55,313.00 199.95,313.34 199.88,313.75 C199.82,314.16 199.87,314.84 200.01,315.25 C200.14,315.66 200.36,316.45 200.50,317.00 C200.64,317.55 200.81,318.23 200.88,318.50 C200.94,318.77 201.48,319.00 202.06,319.00 C202.64,319.00 202.84,318.56 202.51,318.01 ZM 185.28 314.00 C185.64,311.96 185.77,312.15 185.97,315.00 L 186.20 318.50 L 187.02 315.03 C187.84,311.53 186.81,308.00 184.96,308.00 C183.57,308.00 183.78,309.74 185.25,310.34 C189.89,312.21 168.70,309.63 162.01,307.50 C161.05,307.20 160.33,307.51 160.32,308.24 C160.32,308.93 160.01,310.45 159.63,311.61 C159.20,312.96 159.50,314.17 160.48,314.98 C161.78,316.06 162.02,315.83 162.12,313.37 C162.20,311.33 162.38,311.06 162.73,312.44 C163.19,314.25 163.32,314.21 164.67,311.94 L 166.11 309.50 L 165.69 312.25 C165.46,313.76 165.66,315.00 166.14,315.00 C166.61,315.00 167.00,314.13 167.00,313.06 C167.00,310.52 168.55,309.64 170.74,310.92 C172.32,311.83 172.27,311.94 170.25,311.97 C169.01,311.99 168.00,312.50 168.00,313.11 C168.00,313.72 168.68,313.95 169.50,313.64 C170.43,313.28 171.00,313.64 171.00,314.59 C171.00,315.43 171.45,315.84 172.00,315.50 C172.55,315.16 173.00,314.01 173.00,312.94 C173.00,311.87 173.48,311.00 174.07,311.00 C174.68,311.00 174.86,311.85 174.50,313.00 C174.05,314.42 174.32,315.00 175.43,315.00 C176.29,315.00 177.00,315.45 177.00,316.00 C177.00,316.55 177.45,317.00 178.00,317.00 C178.55,317.00 179.00,315.88 179.00,314.50 C179.00,313.12 179.48,312.00 180.06,312.00 C180.64,312.00 180.82,312.48 180.46,313.07 C179.70,314.30 183.16,318.10 184.17,317.14 C184.53,316.79 185.03,315.38 185.28,314.00 ZM 234.75 310.48 C234.49,309.09 234.66,307.71 235.13,307.42 C235.61,307.12 236.00,307.76 236.00,308.83 C236.00,309.91 236.68,311.05 237.50,311.36 C239.73,312.22 242.20,310.95 241.56,309.29 C241.25,308.49 241.00,307.27 241.00,306.58 C241.00,304.86 236.20,302.80 233.89,303.54 C231.72,304.22 231.56,305.45 233.10,309.85 C234.41,313.63 235.43,314.01 234.75,310.48 ZM 156.03 309.42 C156.67,307.74 156.67,306.26 156.04,305.17 C155.50,304.25 155.05,304.03 155.03,304.68 C155.01,305.51 154.12,305.61 152.00,305.00 C150.20,304.48 149.00,304.51 149.00,305.07 C149.00,305.58 150.01,306.06 151.25,306.14 L 153.50 306.27 L 151.25 306.71 C149.04,307.13 147.89,311.00 149.97,311.00 C150.50,311.00 150.66,310.21 150.32,309.25 C149.85,307.91 150.21,308.02 151.89,309.75 C154.64,312.58 154.84,312.56 156.03,309.42 ZM 245.63 305.87 C244.71,303.74 244.13,303.17 244.08,304.32 C243.99,306.36 245.91,310.42 246.63,309.70 C246.89,309.44 246.44,307.72 245.63,305.87 ZM 145.60 306.45 C146.53,302.75 145.42,302.36 144.17,305.95 C143.55,307.73 143.49,309.00 144.03,309.00 C144.54,309.00 145.25,307.85 145.60,306.45 ZM 141.60 305.45 C142.53,301.75 141.42,301.36 140.17,304.95 C139.55,306.73 139.49,308.00 140.03,308.00 C140.54,308.00 141.25,306.85 141.60,305.45 ZM 225.00 306.83 C225.00,306.38 224.32,306.00 223.50,306.00 C222.68,306.00 222.00,306.38 222.00,306.83 C222.00,307.29 222.68,307.67 223.50,307.67 C224.32,307.67 225.00,307.29 225.00,306.83 ZM 249.69 305.00 C249.07,303.35 248.23,302.00 247.83,302.00 C247.43,302.00 247.57,303.35 248.15,305.00 C248.73,306.65 249.56,308.00 250.01,308.00 C250.46,308.00 250.32,306.65 249.69,305.00 ZM 180.50 297.96 C135.88,291.00 100.01,259.15 88.31,216.10 C84.83,203.31 83.95,179.97 86.44,166.65 C94.29,124.78 125.61,90.91 167.11,79.44 C178.76,76.22 200.17,75.06 213.10,76.95 C249.06,82.21 282.13,107.03 297.50,140.29 C307.37,161.65 310.19,186.63 305.37,210.00 C296.48,253.07 262.48,287.17 219.00,296.61 C210.75,298.40 188.35,299.19 180.50,297.96 ZM 216.87 294.39 C237.58,290.68 257.77,279.96 273.39,264.37 C294.40,243.40 305.36,216.58 305.23,186.50 C304.99,132.30 265.87,87.35 211.58,78.86 C200.57,77.14 180.43,78.33 168.50,81.41 C128.53,91.72 97.41,124.76 89.05,165.73 C81.63,202.17 93.67,240.43 120.59,265.92 C147.24,291.14 180.34,300.92 216.87,294.39 ZM 193.00 311.00 C193.00,309.75 194.06,309.75 196.00,311.00 C197.21,311.78 197.07,311.97 195.25,311.98 C194.01,311.99 193.00,311.55 193.00,311.00 ZM 182.00 314.00 C182.00,313.45 182.48,313.00 183.06,313.00 C183.64,313.00 183.84,313.45 183.50,314.00 C183.16,314.55 182.68,315.00 182.44,315.00 C182.20,315.00 182.00,314.55 182.00,314.00 ZM 176.00 313.00 C176.00,312.45 176.48,312.00 177.06,312.00 C177.64,312.00 177.84,312.45 177.50,313.00 C177.16,313.55 176.68,314.00 176.44,314.00 C176.20,314.00 176.00,313.55 176.00,313.00 ZM 238.50 310.00 C238.84,309.45 239.32,309.00 239.56,309.00 C239.80,309.00 240.00,309.45 240.00,310.00 C240.00,310.55 239.52,311.00 238.94,311.00 C238.36,311.00 238.16,310.55 238.50,310.00 ZM 234.81 305.32 C235.53,305.03 236.40,305.06 236.73,305.40 C237.06,305.73 236.47,305.96 235.42,305.92 C234.25,305.87 234.01,305.64 234.81,305.32 ZM 177.66 292.40 C149.08,287.24 123.41,270.43 107.40,246.39 C71.32,192.20 91.55,118.88 150.29,90.97 C180.19,76.76 214.11,77.03 243.50,91.70 C255.10,97.50 262.74,103.02 271.81,112.20 C281.09,121.59 287.12,130.13 292.51,141.50 C297.63,152.31 299.58,158.56 301.52,170.50 C302.90,178.96 303.43,188.30 302.35,185.00 C300.35,178.93 296.65,176.00 290.98,176.00 C284.23,176.00 280.06,180.26 280.02,187.17 C279.99,194.57 285.92,199.33 293.74,198.19 C296.54,197.78 301.69,192.73 302.37,189.74 C302.65,188.51 302.64,191.31 302.35,195.97 C300.94,218.70 290.56,242.15 273.78,260.56 C263.45,271.90 244.88,283.63 228.97,288.87 C213.66,293.91 193.62,295.29 177.66,292.40 ZM 192.93 280.25 C192.97,278.84 193.65,277.97 194.75,277.91 C195.71,277.86 194.98,277.38 193.11,276.85 C190.81,276.18 189.39,276.21 188.66,276.94 C187.91,277.69 188.10,278.00 189.30,278.00 C190.62,278.00 191.02,278.94 191.07,282.25 C191.12,285.54 191.33,286.05 192.00,284.50 C192.47,283.40 192.89,281.49 192.93,280.25 ZM 200.57 284.89 C201.02,284.15 200.57,284.00 199.21,284.43 C198.09,284.79 196.91,284.66 196.59,284.15 C196.28,283.64 197.33,283.03 198.94,282.80 C201.18,282.47 201.98,282.81 202.36,284.26 C202.92,286.42 207.05,286.38 207.77,284.21 C208.08,283.26 207.47,283.09 205.50,283.59 C203.21,284.16 202.86,283.98 203.19,282.38 C203.46,281.11 204.31,280.58 205.85,280.75 C207.15,280.89 207.85,280.57 207.50,280.00 C206.65,278.63 202.25,278.74 201.79,280.14 C201.52,280.95 200.78,280.88 199.22,279.91 C197.33,278.73 196.81,278.76 195.41,280.16 C193.14,282.43 194.42,286.00 197.51,286.00 C198.81,286.00 200.19,285.50 200.57,284.89 ZM 183.00 282.50 C183.00,281.12 183.42,280.00 183.94,280.00 C184.45,280.00 184.81,279.10 184.73,278.00 C184.64,276.90 184.00,276.00 183.29,276.00 C182.58,276.00 181.97,276.11 181.94,276.25 C181.13,279.50 181.14,285.00 181.95,285.00 C182.53,285.00 183.00,283.88 183.00,282.50 ZM 210.79 282.35 C210.40,278.75 212.35,278.33 213.69,281.73 L 214.79 284.50 L 214.89 281.87 C215.00,279.16 212.86,276.47 211.60,277.73 C211.21,278.12 210.49,277.79 210.00,277.00 C208.54,274.64 207.89,276.45 208.59,280.87 C209.31,285.36 211.26,286.68 210.79,282.35 ZM 179.50 280.50 C179.50,278.18 179.01,277.43 177.32,277.19 C175.94,276.99 174.74,277.61 174.07,278.87 C172.47,281.85 173.79,284.16 176.88,283.80 C179.06,283.55 179.50,282.99 179.50,280.50 ZM 219.32 278.27 C219.97,278.48 220.64,279.63 220.82,280.83 C221.00,282.02 221.57,283.00 222.09,283.00 C223.12,283.00 222.24,278.05 220.96,276.64 C220.52,276.15 219.11,276.15 217.76,276.64 C215.52,277.44 215.42,277.76 216.38,281.00 L 217.42 284.50 L 217.78 281.19 C217.99,279.20 218.61,278.03 219.32,278.27 ZM 169.00 281.00 C169.00,280.45 168.32,280.00 167.50,280.00 C166.68,280.00 166.00,279.59 166.00,279.09 C166.00,278.60 166.85,278.41 167.89,278.68 C170.45,279.35 171.37,277.52 169.44,275.58 C168.25,274.39 167.39,274.26 165.93,275.04 C164.07,276.03 163.29,279.95 164.67,281.33 C165.70,282.37 169.00,282.12 169.00,281.00 ZM 229.61 279.58 C230.30,277.78 228.33,273.99 226.71,274.02 C224.05,274.05 222.73,275.78 223.38,278.39 C223.87,280.34 224.68,281.00 226.55,281.00 C227.93,281.00 229.31,280.36 229.61,279.58 ZM 162.00 278.06 C162.00,276.99 162.45,275.84 163.00,275.50 C164.25,274.73 164.33,271.00 163.10,271.00 C162.15,271.00 160.00,276.32 160.00,278.65 C160.00,279.39 160.45,280.00 161.00,280.00 C161.55,280.00 162.00,279.13 162.00,278.06 ZM 232.50 277.25 C232.11,276.29 231.35,274.26 230.80,272.75 C230.25,271.24 229.43,270.23 228.98,270.51 C228.00,271.12 231.12,278.98 232.36,278.99 C232.83,279.00 232.89,278.21 232.50,277.25 ZM 159.50 275.00 C160.35,273.35 160.61,272.00 160.06,272.00 C159.52,272.00 158.59,272.90 158.00,274.00 C156.30,277.18 154.76,276.42 155.47,272.75 C156.06,269.68 156.01,269.61 154.55,271.44 C152.53,273.97 152.59,275.66 154.75,276.92 C157.37,278.45 157.81,278.27 159.50,275.00 ZM 238.49 276.37 C239.38,275.48 239.85,274.06 239.53,273.23 C239.04,271.95 239.20,271.92 240.56,273.05 C241.82,274.10 242.57,274.13 244.08,273.18 C245.31,272.41 246.00,272.36 246.00,273.02 C246.00,273.60 244.99,274.47 243.75,274.97 L 241.50 275.87 L 243.78 275.94 C246.87,276.02 247.61,273.51 245.70,269.49 C244.42,266.82 243.67,266.27 241.92,266.73 C240.72,267.05 239.51,268.16 239.24,269.21 C238.95,270.31 238.16,270.89 237.37,270.59 C233.75,269.20 231.33,273.93 234.20,276.80 C235.79,278.39 236.54,278.32 238.49,276.37 ZM 153.08 270.00 C153.59,270.00 154.00,269.10 154.00,268.00 C154.00,266.90 153.56,266.00 153.01,266.00 C151.65,266.00 148.86,272.96 149.69,274.31 C150.08,274.94 150.75,274.26 151.27,272.70 C151.76,271.22 152.58,270.00 153.08,270.00 ZM 148.98 269.04 C151.71,263.69 151.52,262.90 148.50,267.00 C146.24,270.07 145.25,273.00 146.48,273.00 C146.74,273.00 147.87,271.22 148.98,269.04 ZM 251.50 268.14 C250.58,263.25 248.65,260.23 249.44,264.91 C250.01,268.28 249.99,268.30 248.00,266.50 C246.89,265.50 245.74,264.92 245.44,265.23 C245.14,265.53 246.04,266.68 247.45,267.78 C248.85,268.88 250.00,270.54 250.00,271.45 C250.00,272.40 250.47,272.83 251.09,272.44 C251.77,272.03 251.92,270.40 251.50,268.14 ZM 144.52 270.04 C144.20,269.51 144.73,268.23 145.71,267.20 C147.75,265.07 148.43,263.00 147.10,263.00 C145.87,263.00 142.01,269.21 142.63,270.21 C142.90,270.64 143.57,271.00 144.12,271.00 C144.67,271.00 144.85,270.57 144.52,270.04 ZM 215.78 267.46 C225.47,265.12 241.40,257.06 249.12,250.61 C261.70,240.08 272.30,223.06 276.59,206.50 C279.02,197.14 279.06,177.28 276.67,167.50 C274.39,158.17 266.23,141.94 260.03,134.40 C242.60,113.20 213.53,101.51 186.75,104.92 C152.26,109.31 124.76,133.28 116.05,166.56 C114.92,170.86 113.97,175.98 113.93,177.94 C113.85,181.92 112.20,187.01 112.07,183.67 C112.03,182.67 110.68,180.53 109.08,178.92 C106.68,176.53 105.31,176.00 101.48,176.00 C92.42,176.00 87.09,185.26 91.67,193.02 C96.25,200.77 108.00,199.99 111.48,191.70 L 112.81 188.55 L 113.47 193.52 C116.41,215.60 123.00,229.92 136.87,244.34 C149.64,257.62 165.88,266.18 183.53,268.95 C191.50,270.21 207.46,269.46 215.78,267.46 ZM 142.62 265.56 C143.84,262.94 142.80,261.00 140.18,261.00 C139.11,261.00 138.90,261.82 139.36,264.25 C139.92,267.28 139.87,267.37 138.48,265.56 C137.34,264.06 137.00,263.96 137.00,265.14 C137.00,268.76 141.00,269.06 142.62,265.56 ZM 138.00 259.51 C138.00,258.81 137.31,257.67 136.47,256.98 C135.20,255.92 134.52,256.10 132.50,258.00 C131.16,259.26 130.31,260.68 130.60,261.17 C130.90,261.65 131.94,261.06 132.91,259.86 C135.27,256.95 137.64,258.25 135.51,261.29 C134.68,262.47 134.01,263.91 134.03,264.47 C134.08,265.94 138.00,261.04 138.00,259.51 ZM 258.80 263.80 C259.46,263.14 259.98,262.13 259.96,261.55 C259.91,259.84 255.15,254.52 254.37,255.29 C253.98,255.69 254.64,257.05 255.83,258.32 C258.38,261.03 258.64,263.00 256.44,263.00 C255.58,263.00 255.16,263.45 255.50,264.00 C256.32,265.32 257.34,265.26 258.80,263.80 ZM 266.00 256.62 C266.00,254.60 262.47,251.88 260.72,252.55 C258.19,253.53 257.90,255.90 260.05,258.05 C261.63,259.63 262.45,259.83 264.02,258.99 C265.11,258.41 266.00,257.34 266.00,256.62 ZM 132.49 256.01 C134.07,254.37 135.08,252.75 134.74,252.41 C133.86,251.53 132.39,252.65 129.98,256.03 C127.24,259.87 128.80,259.86 132.49,256.01 ZM 127.17 253.35 C129.57,251.17 129.49,249.33 126.92,247.96 C125.25,247.07 124.45,247.19 122.92,248.58 C121.86,249.53 121.00,250.76 121.00,251.31 C121.00,251.86 121.82,251.57 122.83,250.65 C124.80,248.87 127.00,248.46 127.00,249.88 C127.00,250.36 126.32,251.32 125.50,252.00 C123.96,253.28 123.48,255.00 124.67,255.00 C125.04,255.00 126.17,254.26 127.17,253.35 ZM 270.73 252.06 C271.77,250.39 271.52,249.78 268.89,247.56 C265.84,244.99 262.41,243.81 264.73,246.13 C265.56,246.96 265.56,247.73 264.74,249.05 C263.89,250.40 263.94,251.22 264.93,252.42 C266.71,254.57 269.26,254.41 270.73,252.06 ZM 122.47 247.04 C124.35,244.95 123.94,242.00 121.75,242.00 C121.03,242.00 119.42,242.72 118.16,243.60 C115.99,245.12 115.96,245.30 117.59,247.10 C119.74,249.48 120.26,249.47 122.47,247.04 ZM 274.00 248.24 C274.00,247.82 273.05,246.89 271.88,246.16 C270.32,245.18 270.06,244.54 270.88,243.72 C271.71,242.89 272.32,242.92 273.20,243.80 C273.86,244.46 275.10,244.99 275.95,244.97 C277.09,244.94 276.87,244.41 275.14,242.97 C272.35,240.64 270.15,240.44 269.39,242.44 C269.08,243.24 268.10,243.64 267.17,243.35 C266.25,243.06 267.08,244.20 269.00,245.88 C272.51,248.95 274.00,249.66 274.00,248.24 ZM 119.97 239.75 C120.02,238.54 118.98,238.87 116.44,240.87 C115.14,241.89 114.33,243.00 114.66,243.32 C115.32,243.99 119.92,240.90 119.97,239.75 ZM 279.53 242.08 C279.19,241.03 279.39,239.88 279.96,239.52 C281.69,238.46 279.20,235.00 276.71,235.00 C274.87,235.00 271.10,238.68 272.18,239.41 C273.81,240.52 279.57,243.97 279.82,243.98 C279.99,243.99 279.86,243.14 279.53,242.08 ZM 120.80 237.90 C121.00,238.51 121.58,239.00 122.09,239.00 C122.60,239.00 122.45,238.09 121.76,236.99 C121.07,235.88 119.92,235.20 119.21,235.47 C118.50,235.74 117.67,235.30 117.36,234.48 C116.19,231.45 111.00,233.50 111.00,237.00 C111.00,240.40 113.17,241.10 116.91,238.89 C119.13,237.58 120.57,237.22 120.80,237.90 ZM 285.00 231.01 C285.00,230.00 279.10,227.57 278.38,228.28 C278.08,228.59 278.77,229.34 279.91,229.95 C281.06,230.57 282.00,231.75 282.00,232.57 C282.00,233.77 281.59,233.85 279.94,232.97 C278.81,232.37 277.35,232.05 276.69,232.27 C276.04,232.49 276.85,233.40 278.50,234.29 C281.35,235.83 281.59,235.81 283.25,233.85 C284.21,232.71 285.00,231.43 285.00,231.01 ZM 112.78 232.44 C115.34,230.65 115.43,230.15 113.58,227.72 C112.44,226.21 111.84,226.12 109.62,227.13 C106.73,228.44 105.95,230.62 108.75,229.53 C111.61,228.42 112.23,228.44 112.68,229.67 C112.92,230.31 112.19,231.12 111.06,231.48 C109.92,231.84 109.00,232.55 109.00,233.07 C109.00,234.42 110.25,234.22 112.78,232.44 ZM 286.00 228.00 C286.00,227.45 285.28,227.00 284.41,227.00 C283.53,227.00 282.58,226.10 282.29,225.00 C281.63,222.49 280.00,222.38 280.00,224.85 C280.00,225.86 281.01,227.18 282.25,227.78 C285.16,229.18 286.00,229.23 286.00,228.00 ZM 109.98 225.39 C112.19,224.51 114.00,223.38 114.00,222.89 C114.00,222.40 113.76,222.00 113.46,222.00 C112.52,222.00 105.00,226.02 105.00,226.52 C105.00,227.27 105.67,227.12 109.98,225.39 ZM 109.00 147.94 C109.00,147.36 108.55,147.16 108.00,147.50 C107.45,147.84 107.00,147.64 107.00,147.06 C107.00,145.44 109.99,145.80 110.64,147.50 C111.33,149.31 114.16,149.52 113.93,147.75 C113.52,144.64 114.04,143.88 116.13,144.54 C119.30,145.55 117.58,143.48 114.02,142.01 C112.36,141.32 111.00,140.39 111.00,139.94 C111.00,138.15 112.79,138.20 115.84,140.05 C119.37,142.20 120.00,142.37 120.00,141.23 C120.00,140.80 118.44,139.62 116.54,138.59 C113.64,137.03 113.24,136.42 114.07,134.86 C115.25,132.67 117.47,132.33 116.65,134.47 C116.34,135.28 116.53,136.21 117.07,136.54 C118.42,137.38 124.00,136.06 124.00,134.90 C124.00,134.38 122.99,134.21 121.75,134.52 C120.15,134.91 119.13,134.47 118.21,132.99 C117.11,131.21 117.23,130.49 119.03,127.96 C120.19,126.33 121.63,125.00 122.22,125.00 C122.82,125.00 122.51,125.88 121.53,126.96 C118.99,129.78 120.23,132.03 124.22,131.85 C127.24,131.71 127.29,131.67 124.75,131.28 C123.24,131.05 122.00,130.25 122.00,129.49 C122.00,127.20 123.81,126.83 126.47,128.57 C130.09,130.94 129.60,128.82 125.90,126.09 C123.66,124.43 123.11,123.49 123.90,122.70 C124.68,121.92 125.77,122.36 127.80,124.31 C131.94,128.28 132.96,127.58 128.99,123.49 C125.79,120.18 125.69,119.88 127.29,118.28 C128.90,116.67 129.00,116.69 129.00,118.68 C129.00,121.36 131.27,122.26 133.65,120.51 C134.95,119.56 135.87,119.47 136.75,120.21 C139.13,122.18 138.01,119.36 135.47,116.97 C134.08,115.67 133.16,114.03 133.43,113.33 C134.52,110.49 132.09,111.32 128.48,115.02 C125.72,117.85 124.06,118.80 122.57,118.43 C121.43,118.14 119.66,118.52 118.64,119.27 C116.90,120.55 116.89,120.75 118.45,122.30 C120.01,123.86 119.92,124.22 117.12,127.74 C113.24,132.60 106.88,143.21 107.49,143.82 C107.74,144.08 108.62,143.73 109.43,143.06 C111.16,141.62 113.14,142.48 112.42,144.35 C112.12,145.14 110.81,145.48 109.08,145.23 C106.18,144.80 104.38,146.19 105.50,148.00 C106.32,149.33 109.00,149.28 109.00,147.94 ZM 278.00 146.19 C278.00,145.00 278.90,144.47 281.00,144.39 C282.65,144.33 284.00,144.70 284.00,145.20 C284.00,145.71 284.41,145.86 284.92,145.55 C286.14,144.80 278.65,131.11 275.48,128.30 C274.12,127.09 273.00,125.71 273.00,125.25 C273.00,124.78 272.44,123.83 271.75,123.14 C271.06,122.44 270.50,120.26 270.50,118.28 C270.50,115.98 269.96,114.51 269.00,114.18 C267.73,113.75 267.70,113.92 268.84,115.29 C269.57,116.18 269.88,117.39 269.52,117.97 C269.12,118.61 266.81,117.24 263.73,114.55 C257.83,109.39 256.01,109.36 261.00,114.50 C262.85,116.41 264.12,118.21 263.82,118.51 C263.53,118.81 262.72,118.36 262.02,117.52 C260.49,115.68 259.17,115.54 259.36,117.25 C259.44,117.94 259.05,118.50 258.50,118.50 C257.95,118.50 257.52,117.49 257.54,116.25 C257.56,115.01 257.22,114.00 256.79,114.00 C256.36,114.00 256.00,115.36 256.00,117.03 C256.00,120.45 258.21,121.90 260.51,119.99 C261.35,119.30 262.00,119.19 262.00,119.76 C262.00,120.31 261.33,121.32 260.50,122.00 C259.67,122.68 259.00,123.73 259.00,124.32 C259.00,124.91 260.52,123.91 262.39,122.11 C266.53,118.09 268.59,119.73 264.61,123.89 C260.77,127.90 261.43,128.94 265.39,125.11 C269.17,121.44 270.68,122.14 268.41,126.51 C267.60,128.08 267.24,130.07 267.62,130.93 C268.00,131.80 268.22,133.06 268.11,133.75 C267.82,135.59 269.08,135.28 271.63,132.87 C273.00,131.59 274.55,131.00 275.55,131.38 C276.99,131.93 276.89,132.27 274.85,133.94 C272.82,135.60 272.67,136.15 273.74,137.91 C274.79,139.63 274.70,140.09 273.12,140.94 C272.10,141.48 270.91,141.61 270.47,141.21 C270.04,140.82 270.00,141.40 270.40,142.50 C270.86,143.79 270.78,144.15 270.16,143.50 C269.63,142.95 268.98,141.60 268.71,140.50 C268.34,138.96 268.21,139.12 268.12,141.19 C267.97,144.50 269.88,145.88 271.51,143.65 C272.18,142.74 273.12,141.99 273.61,141.98 C274.10,141.97 275.62,141.10 276.98,140.05 C278.78,138.67 279.82,138.43 280.73,139.19 C282.81,140.92 282.30,143.23 280.00,142.50 C278.46,142.01 277.77,142.48 277.00,144.50 C275.73,147.85 275.73,149.29 277.00,148.50 C277.55,148.16 278.00,147.12 278.00,146.19 ZM 247.00 109.50 C248.19,107.57 249.83,106.00 250.64,106.00 C253.24,106.00 251.14,104.22 243.71,100.12 C235.71,95.70 219.77,90.00 215.41,90.00 C212.74,90.00 212.70,90.06 214.56,91.48 C216.21,92.74 216.28,93.11 215.04,93.92 C213.24,95.10 214.65,100.07 217.00,100.81 C218.10,101.17 217.99,100.72 216.60,99.15 C214.73,97.04 215.38,96.44 218.31,97.56 C219.23,97.92 219.58,98.91 219.23,100.22 C218.89,101.53 219.08,102.07 219.73,101.67 C220.30,101.31 221.07,99.44 221.43,97.51 C221.92,94.92 222.60,94.00 224.05,94.00 C225.12,94.00 226.00,94.68 226.00,95.50 C226.00,96.32 225.36,97.00 224.57,97.00 C223.44,97.00 223.33,97.66 224.04,100.14 C225.08,103.75 225.72,104.61 226.68,103.65 C227.06,103.27 226.83,102.43 226.18,101.78 C225.53,101.13 225.00,100.24 225.00,99.80 C225.00,98.30 226.89,99.00 229.59,101.50 C231.08,102.88 232.66,104.00 233.11,104.00 C233.57,104.00 233.68,104.68 233.36,105.50 C233.05,106.32 233.21,107.00 233.73,107.00 C234.25,107.00 235.27,105.20 236.00,103.00 C236.73,100.80 237.67,99.00 238.10,99.00 C239.82,99.00 240.00,101.09 238.54,103.92 C237.69,105.56 237.02,107.49 237.04,108.20 C237.07,108.92 238.02,107.70 239.17,105.50 C240.31,103.30 241.39,101.34 241.56,101.15 C242.05,100.60 248.00,104.35 248.00,105.22 C248.00,106.35 245.23,106.18 244.50,105.00 C243.47,103.34 242.00,103.87 242.00,105.91 C242.00,107.37 242.50,107.68 244.17,107.25 C245.90,106.79 246.20,107.02 245.67,108.34 C245.30,109.25 244.73,110.68 244.39,111.50 C243.29,114.22 244.80,113.06 247.00,109.50 ZM 153.23 108.10 C153.50,108.87 154.04,109.21 154.42,108.86 C154.80,108.51 154.19,106.71 153.06,104.86 C150.66,100.93 150.52,100.00 152.31,100.00 C153.04,100.00 154.41,101.63 155.36,103.62 C156.31,105.62 157.31,107.02 157.59,106.75 C157.86,106.47 157.31,104.62 156.36,102.64 C154.40,98.52 154.44,98.41 158.50,97.46 C161.36,96.80 161.40,96.84 159.50,98.30 C157.51,99.83 157.52,99.86 159.91,102.40 C161.75,104.36 162.92,104.81 164.91,104.34 C168.39,103.51 168.32,103.70 166.57,99.50 C165.08,95.96 165.20,94.00 166.90,94.00 C167.33,94.00 168.24,95.84 168.91,98.10 C170.44,103.21 171.53,102.57 170.10,97.40 C169.52,95.32 169.24,93.43 169.46,93.21 C170.45,92.22 171.98,94.35 172.57,97.54 C172.93,99.44 173.65,101.00 174.18,101.00 C174.70,101.00 174.90,100.21 174.61,99.25 C172.70,92.80 172.73,92.00 174.93,92.00 C176.57,92.00 177.01,92.53 176.79,94.25 C176.63,95.49 176.95,96.59 177.50,96.70 C178.05,96.82 178.43,95.58 178.35,93.95 C178.26,92.13 178.70,91.00 179.50,91.00 C181.00,91.00 182.00,93.19 182.00,96.52 C182.00,97.82 182.50,99.19 183.11,99.57 C183.90,100.05 184.01,99.02 183.50,96.00 C182.70,91.29 183.66,90.03 188.00,90.03 L 190.50 90.03 L 188.00 91.29 C184.67,92.98 184.84,94.97 188.50,97.01 C191.46,98.67 191.51,98.66 192.00,96.18 C192.27,94.80 193.11,93.46 193.85,93.21 C194.86,92.88 195.03,93.37 194.49,95.13 C193.90,97.09 194.01,97.28 195.12,96.22 C196.14,95.25 196.19,94.54 195.32,93.22 C194.70,92.28 193.69,91.61 193.09,91.75 C192.49,91.89 192.00,91.55 192.00,91.00 C192.00,90.45 193.35,90.00 195.00,90.00 C197.89,90.00 198.01,90.18 198.17,94.75 L 198.35 99.50 L 198.74 95.02 C198.96,92.55 199.65,90.22 200.28,89.83 C201.63,88.99 195.80,83.00 193.63,83.00 C191.86,83.00 189.65,85.63 190.40,86.84 C190.72,87.36 188.96,88.08 186.50,88.45 C183.19,88.94 181.42,88.71 179.78,87.56 C175.54,84.59 170.00,86.08 170.00,90.20 C170.00,92.39 168.68,92.52 167.00,90.50 C165.61,88.83 161.00,88.44 161.00,90.00 C161.00,90.55 162.12,91.00 163.50,91.00 C167.61,91.00 166.34,92.36 159.91,94.83 C154.35,96.97 153.70,97.04 152.09,95.58 C150.08,93.76 147.00,93.47 147.00,95.11 C147.00,95.72 147.66,95.96 148.47,95.65 C149.28,95.34 150.20,95.52 150.53,96.04 C150.85,96.57 150.44,97.00 149.62,97.00 C148.79,97.00 147.81,97.50 147.43,98.11 C146.97,98.86 147.51,99.00 149.12,98.54 C150.49,98.15 149.69,98.98 147.25,100.49 C144.91,101.93 143.00,103.56 143.00,104.12 C143.00,104.67 143.42,104.86 143.94,104.54 C145.25,103.73 149.68,108.39 149.23,110.10 C149.02,110.87 149.73,110.42 150.79,109.10 C152.24,107.31 152.86,107.06 153.23,108.10 ZM 221.00 89.00 C221.00,88.45 220.80,88.00 220.56,88.00 C220.32,88.00 219.84,88.45 219.50,89.00 C219.16,89.55 219.36,90.00 219.94,90.00 C220.52,90.00 221.00,89.55 221.00,89.00 ZM 287.50 196.09 C281.12,193.36 279.44,185.10 284.28,180.27 C287.95,176.59 294.05,176.60 297.74,180.28 C301.21,183.75 301.28,190.18 297.89,193.57 C295.21,196.24 290.51,197.38 287.50,196.09 ZM 295.87 191.46 C296.07,190.41 296.96,189.02 297.85,188.37 C299.33,187.28 299.34,187.02 297.89,185.34 C297.02,184.33 296.06,182.80 295.76,181.94 C294.91,179.52 286.63,179.98 286.15,182.48 C285.95,183.51 285.14,185.01 284.34,185.80 C283.11,187.03 283.11,187.47 284.30,188.87 C285.07,189.77 285.96,191.25 286.28,192.16 C287.17,194.68 295.36,194.09 295.87,191.46 ZM 196.51 280.98 C196.86,280.42 197.56,280.23 198.07,280.54 C199.46,281.40 199.20,282.00 197.44,282.00 C196.58,282.00 196.16,281.54 196.51,280.98 ZM 175.45 281.91 C174.59,280.52 176.49,278.57 177.87,279.42 C179.02,280.13 178.28,283.00 176.95,283.00 C176.49,283.00 175.82,282.51 175.45,281.91 ZM 167.00 277.00 C165.72,276.17 165.75,276.03 167.25,276.02 C168.21,276.01 169.00,276.45 169.00,277.00 C169.00,278.22 168.89,278.22 167.00,277.00 ZM 225.38 278.55 C224.69,276.75 225.81,274.76 227.07,275.54 C228.34,276.33 228.25,280.00 226.97,280.00 C226.40,280.00 225.69,279.35 225.38,278.55 ZM 234.65 274.53 C234.01,272.86 235.50,271.57 237.00,272.50 C238.50,273.42 238.21,276.00 236.61,276.00 C235.84,276.00 234.96,275.34 234.65,274.53 ZM 241.18 270.45 C241.63,268.28 243.40,268.14 243.81,270.25 C244.02,271.34 243.53,272.00 242.50,272.00 C241.54,272.00 240.99,271.35 241.18,270.45 ZM 177.50 265.10 C146.70,257.39 123.95,233.77 117.33,202.64 C115.20,192.63 116.01,173.96 118.99,164.50 C121.87,155.38 127.85,143.94 133.48,136.78 C143.33,124.27 160.92,113.14 177.41,108.99 C193.01,105.06 213.52,106.89 228.50,113.53 C248.81,122.53 265.70,141.25 272.68,162.50 C276.48,174.08 277.14,194.07 274.10,206.06 C268.97,226.34 256.66,243.51 239.09,254.86 C228.14,261.94 212.34,267.00 201.19,267.00 C197.42,267.00 196.94,266.78 197.96,265.54 C199.45,263.75 198.51,262.00 196.05,262.00 C193.81,262.00 192.74,264.34 194.28,265.88 C196.03,267.63 185.70,267.15 177.50,265.10 ZM 204.03 259.94 C229.23,256.78 249.55,242.89 260.92,221.03 C265.30,212.63 269.00,200.57 269.00,194.76 C269.00,192.68 269.56,190.08 270.24,188.99 C271.23,187.41 271.23,186.59 270.24,185.01 C269.56,183.92 268.99,181.56 268.99,179.76 C268.94,170.42 263.10,155.10 255.55,144.51 C235.16,115.94 196.44,105.89 164.87,120.97 C142.70,131.56 126.33,153.98 123.46,177.65 C123.07,180.87 122.29,184.08 121.73,184.78 C121.02,185.67 121.03,186.76 121.77,188.28 C122.36,189.50 123.11,193.07 123.43,196.21 C124.25,204.25 128.29,216.35 132.70,224.00 C138.50,234.03 152.00,246.88 162.06,251.91 C173.26,257.52 178.04,258.84 194.53,260.87 C195.09,260.94 199.37,260.52 204.03,259.94 ZM 197.90 112.09 C199.78,110.89 198.54,108.00 196.14,108.00 C193.83,108.00 192.72,110.32 194.28,111.88 C195.62,113.22 196.07,113.24 197.90,112.09 ZM 97.36 196.01 C92.68,194.12 90.45,186.76 93.08,181.85 C94.50,179.20 99.79,177.05 103.26,177.71 C106.65,178.36 111.00,183.31 111.00,186.53 C111.00,193.94 104.10,198.73 97.36,196.01 ZM 100.25 191.25 C99.90,189.52 101.05,189.68 102.42,191.56 C103.30,192.77 104.14,192.90 106.14,192.14 C108.39,191.28 108.64,190.75 108.11,187.83 C107.77,186.00 106.96,183.60 106.31,182.50 C105.32,180.86 104.78,180.70 103.24,181.64 C101.92,182.45 100.82,182.48 99.51,181.75 C98.03,180.92 97.28,181.17 95.83,182.96 C94.02,185.20 93.33,191.00 94.71,192.38 C95.88,193.55 100.52,192.60 100.25,191.25 ZM 140.67 264.33 C140.30,263.97 140.00,263.20 140.00,262.63 C140.00,262.01 140.47,262.07 141.18,262.78 C141.83,263.43 142.13,264.20 141.85,264.48 C141.57,264.77 141.03,264.70 140.67,264.33 ZM 260.35 256.46 C260.02,255.61 260.01,254.65 260.33,254.33 C261.34,253.32 264.00,254.87 264.00,256.47 C264.00,258.46 261.11,258.46 260.35,256.46 ZM 266.07 251.59 C265.27,250.62 265.23,249.97 265.95,249.53 C267.35,248.67 269.00,249.77 269.00,251.56 C269.00,253.40 267.58,253.41 266.07,251.59 ZM 118.50 246.00 C118.16,245.45 118.33,245.00 118.88,245.00 C119.43,245.00 120.16,245.45 120.50,246.00 C120.84,246.55 120.67,247.00 120.12,247.00 C119.57,247.00 118.84,246.55 118.50,246.00 ZM 120.50 244.00 C120.16,243.45 120.36,243.00 120.94,243.00 C121.52,243.00 122.00,243.45 122.00,244.00 C122.00,244.55 121.80,245.00 121.56,245.00 C121.32,245.00 120.84,244.55 120.50,244.00 ZM 275.50 239.00 C274.42,237.26 276.02,235.77 277.58,237.06 C278.35,237.70 278.73,238.63 278.43,239.11 C277.70,240.29 276.27,240.24 275.50,239.00 ZM 112.25 236.75 C112.88,234.86 116.00,234.59 116.00,236.43 C116.00,237.35 115.15,238.00 113.92,238.00 C112.69,238.00 112.01,237.48 112.25,236.75 ZM 119.54 121.07 C118.80,119.87 120.68,118.69 122.02,119.51 C123.13,120.20 122.40,122.00 121.00,122.00 C120.51,122.00 119.86,121.58 119.54,121.07 ZM 130.66 117.79 C130.34,116.58 130.30,115.37 130.56,115.10 C131.44,114.22 134.25,117.79 133.56,118.90 C132.48,120.64 131.28,120.18 130.66,117.79 ZM 274.53 137.05 C274.21,136.53 274.83,135.63 275.91,135.05 C278.01,133.92 279.64,135.15 278.50,137.00 C277.72,138.27 275.30,138.30 274.53,137.05 ZM 268.96 130.46 C267.97,129.26 268.15,129.00 270.00,129.00 C271.90,129.00 272.05,128.76 270.98,127.48 C270.28,126.64 270.01,125.66 270.37,125.30 C270.95,124.71 273.89,127.74 273.97,129.01 C273.99,129.29 273.14,130.06 272.09,130.71 C270.55,131.67 269.93,131.62 268.96,130.46 ZM 231.00 101.00 C231.00,100.45 231.64,100.00 232.42,100.00 C233.20,100.00 234.03,99.44 234.28,98.75 C234.53,98.06 235.02,97.77 235.39,98.11 C235.75,98.44 235.76,99.45 235.42,100.36 C234.74,102.12 231.00,102.66 231.00,101.00 ZM 227.77 98.43 C227.42,98.09 227.38,97.16 227.69,96.38 C228.10,95.30 228.57,95.23 229.57,96.06 C230.31,96.67 231.38,96.88 231.96,96.53 C232.53,96.17 233.00,96.36 233.00,96.94 C233.00,97.52 232.59,98.00 232.08,98.00 C231.58,98.00 230.54,98.24 229.78,98.53 C229.02,98.82 228.11,98.78 227.77,98.43 ZM 217.00 94.56 C217.00,93.77 217.36,92.90 217.80,92.62 C219.08,91.83 221.32,93.67 220.57,94.89 C219.58,96.49 217.00,96.26 217.00,94.56 ZM 147.96 105.45 C147.05,104.36 146.99,103.61 147.76,102.84 C149.04,101.56 151.00,102.56 151.00,104.50 C151.00,106.64 149.37,107.15 147.96,105.45 ZM 162.61 101.57 C163.02,100.51 162.56,100.28 160.83,100.65 C158.53,101.14 158.53,101.13 160.50,99.50 C161.60,98.60 162.39,97.44 162.25,96.93 C162.11,96.42 162.40,96.00 162.88,96.00 C163.75,96.00 164.96,99.30 164.99,101.75 C164.99,102.44 164.34,103.00 163.53,103.00 C162.67,103.00 162.29,102.41 162.61,101.57 ZM 187.00 94.00 C187.00,93.45 187.68,93.00 188.50,93.00 C189.32,93.00 190.00,93.45 190.00,94.00 C190.00,94.55 189.32,95.00 188.50,95.00 C187.68,95.00 187.00,94.55 187.00,94.00 ZM 172.00 89.63 C172.00,87.66 175.11,86.74 178.09,87.84 L 180.47 88.72 L 177.98 89.44 C176.62,89.83 174.71,90.38 173.75,90.65 C172.64,90.96 172.00,90.58 172.00,89.63 ZM 192.00 86.50 C192.00,85.68 192.84,85.00 193.88,85.00 C194.91,85.00 196.32,85.68 197.00,86.50 C198.06,87.78 197.78,88.00 195.12,88.00 C193.01,88.00 192.00,87.51 192.00,86.50 ZM 287.47 191.95 C286.52,190.41 287.82,189.42 289.10,190.70 C289.82,191.42 289.84,191.98 289.16,192.40 C288.60,192.75 287.84,192.55 287.47,191.95 ZM 292.60 192.16 C292.25,191.60 292.45,190.84 293.05,190.47 C294.59,189.52 295.58,190.82 294.30,192.10 C293.58,192.82 293.02,192.84 292.60,192.16 ZM 288.96 188.45 C287.90,187.17 287.96,186.61 289.34,185.24 C290.89,183.68 291.11,183.68 292.66,185.24 C294.04,186.61 294.10,187.17 293.04,188.45 C292.33,189.30 291.42,190.00 291.00,190.00 C290.58,190.00 289.67,189.30 288.96,188.45 ZM 292.77 187.19 C292.99,186.53 292.25,186.00 291.11,186.00 C289.68,186.00 289.24,186.46 289.65,187.54 C290.31,189.25 292.15,189.04 292.77,187.19 ZM 284.60 188.16 C284.25,187.60 284.45,186.84 285.05,186.47 C286.59,185.52 287.58,186.82 286.30,188.10 C285.58,188.82 285.02,188.84 284.60,188.16 ZM 295.00 187.00 C295.00,186.45 295.45,186.00 296.00,186.00 C296.55,186.00 297.00,186.45 297.00,187.00 C297.00,187.55 296.55,188.00 296.00,188.00 C295.45,188.00 295.00,187.55 295.00,187.00 ZM 287.15 183.05 C287.37,182.39 287.88,181.88 288.27,181.93 C289.47,182.05 289.24,183.42 287.95,183.85 C287.29,184.07 286.93,183.71 287.15,183.05 ZM 292.50 183.00 C292.16,182.45 292.58,182.00 293.44,182.00 C294.30,182.00 295.00,182.45 295.00,183.00 C295.00,183.55 294.58,184.00 294.06,184.00 C293.54,184.00 292.84,183.55 292.50,183.00 ZM 186.50 258.29 C169.11,255.88 151.70,246.07 140.72,232.48 C131.46,221.02 124.34,202.64 125.18,192.39 C125.46,188.98 125.84,188.46 128.25,188.18 L 131.00 187.87 L 131.00 194.93 L 131.00 202.00 L 137.30 202.00 C140.89,202.00 144.12,202.52 144.81,203.21 C146.44,204.84 149.33,202.03 148.43,199.68 C147.72,197.83 145.47,197.44 144.50,199.00 C144.16,199.55 141.43,200.00 138.44,200.00 L 133.00 200.00 L 133.00 194.00 C133.00,188.67 133.22,188.00 135.00,188.00 C137.12,188.00 137.86,191.35 136.00,192.50 C134.40,193.49 134.85,196.73 136.68,197.43 C139.03,198.33 141.84,195.44 140.21,193.81 C139.54,193.14 139.00,191.74 139.00,190.69 C139.00,188.97 139.50,188.85 143.75,189.47 C146.36,189.85 148.86,190.51 149.29,190.93 C149.73,191.35 149.96,195.20 149.79,199.50 C149.51,206.96 149.39,207.32 147.00,207.69 C145.62,207.90 143.52,207.54 142.32,206.90 C139.71,205.51 137.00,206.32 137.00,208.50 C137.00,210.64 139.86,211.57 142.12,210.16 C143.14,209.52 145.53,209.00 147.43,209.00 C149.33,209.00 151.16,208.55 151.50,208.00 C151.84,207.45 153.89,207.00 156.06,207.00 C158.98,207.00 160.00,207.41 160.00,208.57 C160.00,210.78 157.53,213.00 155.07,213.00 C153.50,213.00 153.00,213.64 153.00,215.63 C153.00,218.07 152.75,218.22 149.56,217.70 C145.81,217.09 143.35,218.86 144.34,221.45 C144.76,222.53 146.48,222.92 150.71,222.87 C162.05,222.76 161.00,221.91 161.00,231.30 C161.00,236.15 160.53,240.07 159.87,240.73 C159.24,241.36 159.01,242.57 159.34,243.43 C160.00,245.17 163.54,245.56 164.50,244.00 C164.84,243.45 166.44,243.00 168.06,243.00 C170.66,243.00 171.00,243.35 171.00,246.00 L 171.00 249.00 L 177.48 249.00 C184.81,249.00 184.45,249.46 185.36,238.76 C186.61,224.19 181.24,209.00 171.87,200.58 C166.20,195.47 157.07,190.74 149.50,188.98 C141.27,187.07 141.22,186.89 148.50,185.02 C158.11,182.54 165.61,178.81 171.76,173.43 C181.19,165.18 186.80,149.38 185.41,135.00 C184.39,124.51 184.78,125.00 177.48,125.00 C171.32,125.00 171.00,125.12 171.00,127.39 C171.00,129.28 170.37,129.87 167.96,130.22 C166.28,130.47 164.68,130.29 164.40,129.83 C163.53,128.43 159.97,128.91 159.36,130.51 C159.04,131.34 159.30,132.65 159.93,133.42 C160.65,134.29 160.98,137.77 160.79,142.66 L 160.50 150.50 L 152.70 150.79 C146.83,151.01 144.76,151.46 144.32,152.61 C143.42,154.95 145.67,156.48 149.52,156.15 C152.67,155.88 153.00,156.09 153.00,158.42 C153.00,160.36 153.51,161.00 155.07,161.00 C157.73,161.00 160.36,163.62 159.63,165.53 C158.98,167.21 152.48,167.59 151.50,166.00 C151.16,165.45 149.33,165.00 147.43,165.00 C145.53,165.00 143.14,164.48 142.12,163.84 C139.86,162.43 137.00,163.36 137.00,165.50 C137.00,167.71 139.73,168.48 142.42,167.04 C143.67,166.37 145.78,165.97 147.10,166.16 C149.38,166.48 149.51,166.90 149.79,174.67 C150.11,183.68 150.45,183.19 142.75,184.56 C139.49,185.14 139.00,184.97 139.00,183.31 C139.00,182.26 139.51,180.89 140.13,180.27 C141.73,178.67 140.45,176.00 138.09,176.00 C135.35,176.00 134.54,177.77 136.01,180.53 C137.47,183.25 136.73,186.00 134.53,186.00 C133.33,186.00 133.00,184.72 133.00,180.00 L 133.00 174.00 L 138.30 174.00 C141.21,174.00 144.14,174.54 144.81,175.21 C146.44,176.84 149.33,174.03 148.43,171.68 C147.74,169.89 144.00,169.32 144.00,171.00 C144.00,171.56 141.17,172.00 137.50,172.00 L 131.00 172.00 L 131.00 179.07 L 131.00 186.13 L 128.25 185.82 C125.52,185.50 125.50,185.45 125.68,178.49 C126.23,157.78 142.73,133.80 163.50,123.56 C178.58,116.13 197.61,113.84 212.94,117.62 C240.95,124.52 261.51,146.65 266.61,175.39 C268.15,184.11 267.57,186.00 263.38,186.00 C261.35,186.00 261.00,185.51 261.00,182.68 C261.00,177.92 258.12,170.14 255.93,168.96 C254.51,168.20 254.20,167.26 254.64,165.03 C255.12,162.65 254.67,161.57 252.23,159.30 C250.58,157.76 248.92,155.49 248.55,154.25 C248.17,153.01 247.50,152.00 247.05,152.00 C246.61,152.00 244.39,150.20 242.12,148.00 C239.22,145.19 237.13,144.00 235.08,144.00 C232.17,144.00 232.16,143.98 233.63,141.04 C235.36,137.56 234.77,136.10 229.62,131.18 C226.07,127.79 218.11,125.11 211.36,125.04 C207.96,125.00 208.03,124.83 206.45,136.13 C205.51,142.91 207.60,154.59 211.01,161.60 C216.25,172.36 227.75,180.85 242.17,184.59 C245.65,185.49 249.18,186.44 250.00,186.71 C250.82,186.97 248.18,188.04 244.11,189.08 C234.15,191.64 227.42,194.90 221.84,199.86 C211.72,208.86 206.89,220.33 206.80,235.56 C206.72,247.85 207.17,249.00 212.02,249.00 C220.48,249.00 226.25,246.98 230.19,242.62 C234.02,238.38 234.69,236.17 233.06,233.12 C232.25,231.60 232.52,231.42 235.05,231.79 C237.47,232.15 238.26,231.70 239.72,229.16 C240.69,227.47 242.44,225.85 243.62,225.56 C244.79,225.26 246.57,223.78 247.56,222.26 C248.56,220.74 250.41,218.68 251.69,217.68 C253.17,216.51 254.00,214.80 254.00,212.91 C254.00,211.29 255.38,207.52 257.07,204.54 C259.01,201.10 260.34,197.06 260.71,193.55 C261.25,188.27 261.42,188.00 264.08,188.00 C265.62,188.00 267.14,188.41 267.45,188.92 C268.43,190.50 266.07,203.99 263.55,211.23 C262.23,215.05 259.65,220.71 257.82,223.82 C253.55,231.08 240.08,244.55 232.82,248.82 C219.53,256.63 201.38,260.34 186.50,258.29 ZM 198.06 230.50 C199.85,204.42 201.22,200.03 206.34,204.05 L 209.04 206.17 L 207.86 203.58 C206.35,200.27 207.29,199.36 210.64,200.88 L 213.29 202.09 L 211.64 199.58 C209.31,196.02 209.54,195.67 213.75,196.32 L 217.50 196.90 L 214.52 194.48 C212.40,192.76 211.85,191.75 212.61,190.99 C213.20,190.40 219.15,189.40 225.82,188.77 C232.50,188.15 237.71,187.38 237.40,187.07 C237.10,186.75 231.69,186.01 225.39,185.42 C212.22,184.18 210.12,183.07 214.41,179.66 L 217.27 177.37 L 213.55 177.80 L 209.82 178.24 L 211.43 175.13 L 213.04 172.03 L 210.51 173.18 C207.30,174.64 206.36,173.69 207.83,170.48 L 208.98 167.96 L 206.08 170.10 C204.49,171.27 202.74,171.96 202.20,171.62 C200.23,170.41 197.13,142.99 196.93,125.00 C196.84,116.33 195.17,120.01 195.07,129.11 C194.96,139.22 192.91,161.73 191.64,166.81 C190.29,172.20 188.94,172.91 185.98,169.80 L 183.79 167.50 L 184.47 170.75 C185.01,173.29 184.83,174.00 183.64,174.00 C182.80,174.00 181.84,173.55 181.50,173.00 C181.16,172.45 180.43,172.00 179.88,172.00 C179.34,172.00 179.59,173.00 180.44,174.22 C182.66,177.39 182.41,178.00 178.87,178.00 L 175.73 178.00 L 178.44 180.13 C180.16,181.49 180.80,182.60 180.18,183.22 C179.66,183.74 174.11,184.65 167.86,185.23 C161.61,185.81 156.13,186.61 155.68,187.01 C155.24,187.41 159.06,188.05 164.18,188.43 C174.57,189.21 181.00,190.59 181.00,192.04 C181.00,192.57 180.66,193.01 180.25,193.02 C179.84,193.03 178.38,193.92 177.00,194.99 L 174.50 196.93 L 178.25 196.33 C182.35,195.68 182.81,196.40 180.44,199.78 C179.59,201.00 179.34,202.00 179.88,202.00 C180.43,202.00 181.16,201.55 181.50,201.00 C181.84,200.45 182.82,200.00 183.68,200.00 C184.91,200.00 185.11,200.69 184.61,203.19 L 183.98 206.37 L 186.41 204.08 C187.75,202.82 189.30,202.07 189.86,202.41 C191.97,203.72 194.97,227.97 195.01,244.00 C195.03,253.27 196.38,259.14 196.73,251.50 C196.86,248.75 197.45,239.30 198.06,230.50 ZM 209.68 247.34 C209.30,246.97 209.00,245.88 209.00,244.93 C209.00,243.41 209.44,243.32 212.39,244.23 C217.11,245.68 219.94,244.71 226.14,239.55 C232.71,234.08 234.28,235.97 228.09,241.91 C224.79,245.08 223.06,245.93 218.77,246.48 C215.87,246.84 212.79,247.34 211.93,247.58 C211.06,247.82 210.05,247.72 209.68,247.34 ZM 173.00 244.50 C173.00,242.94 172.43,242.00 171.50,242.00 C170.68,242.00 170.00,241.55 170.00,241.00 C170.00,240.44 172.83,240.00 176.50,240.00 L 183.00 240.00 L 183.00 243.50 L 183.00 247.00 L 178.00 247.00 C173.33,247.00 173.00,246.83 173.00,244.50 ZM 161.00 242.00 C161.00,241.45 161.45,241.00 162.00,241.00 C162.55,241.00 163.00,241.45 163.00,242.00 C163.00,242.55 162.55,243.00 162.00,243.00 C161.45,243.00 161.00,242.55 161.00,242.00 ZM 210.52 240.83 C207.93,238.80 207.80,238.34 208.41,233.15 C208.77,230.12 209.55,227.04 210.15,226.32 C211.94,224.16 218.26,224.81 224.07,227.75 C230.46,230.98 231.87,234.34 227.54,235.98 C226.12,236.53 224.68,237.67 224.35,238.52 C223.59,240.52 218.79,243.00 215.68,243.00 C214.36,243.00 212.03,242.03 210.52,240.83 ZM 223.80 235.80 C227.19,232.41 223.20,226.75 219.00,229.00 C215.47,230.89 217.00,237.00 221.00,237.00 C221.88,237.00 223.14,236.46 223.80,235.80 ZM 214.55 229.91 C215.53,228.34 213.42,226.62 211.45,227.38 C210.09,227.90 210.01,228.30 211.01,229.51 C212.47,231.27 213.63,231.41 214.55,229.91 ZM 164.20 240.80 C163.46,240.06 163.00,236.42 163.00,231.30 L 163.00 223.00 L 166.43 223.00 C168.85,223.00 169.99,222.49 170.31,221.25 C170.56,220.29 170.82,221.19 170.88,223.25 L 171.00 227.00 L 176.89 227.00 C183.48,227.00 184.00,227.52 184.00,234.08 C184.00,236.78 183.56,238.00 182.59,238.00 C181.68,238.00 181.37,237.30 181.71,236.00 C182.15,234.33 181.74,234.00 179.24,234.00 C177.59,234.00 175.69,233.33 175.02,232.52 C173.54,230.74 170.00,232.19 170.00,234.57 C170.00,236.77 172.78,237.46 175.59,235.95 C177.52,234.92 178.30,234.90 179.26,235.86 C180.22,236.82 180.22,237.25 179.23,237.86 C177.46,238.95 170.79,238.28 169.96,236.93 C168.61,234.75 165.50,236.40 165.54,239.28 C165.56,240.77 165.54,242.00 165.49,242.00 C165.44,242.00 164.86,241.46 164.20,240.80 ZM 166.50 239.00 C166.16,238.45 166.61,238.00 167.50,238.00 C168.39,238.00 168.84,238.45 168.50,239.00 C168.16,239.55 167.71,240.00 167.50,240.00 C167.29,240.00 166.84,239.55 166.50,239.00 ZM 172.58 235.13 C172.15,234.44 172.07,233.60 172.40,233.27 C173.29,232.37 174.27,233.69 173.79,235.14 C173.45,236.15 173.21,236.15 172.58,235.13 ZM 241.25 222.72 C249.28,214.86 251.00,212.42 251.00,208.82 C251.01,207.54 252.35,204.48 254.00,202.00 C255.74,199.38 257.26,195.49 257.63,192.69 C257.99,190.04 258.63,188.24 259.07,188.69 C260.33,189.99 258.23,198.90 255.50,203.77 C254.13,206.24 253.00,209.44 253.00,210.89 C253.00,213.69 245.07,223.15 241.74,224.33 C240.77,224.67 239.46,226.08 238.83,227.47 C238.17,228.91 236.84,230.00 235.74,230.00 C234.32,230.00 235.80,228.04 241.25,222.72 ZM 223.57 225.37 C219.61,223.67 216.37,222.95 213.79,223.19 C209.97,223.56 209.94,223.53 210.59,220.53 C213.14,208.66 225.11,197.02 239.88,192.04 C247.29,189.54 250.83,189.36 246.50,191.70 C244.85,192.59 240.84,195.47 237.59,198.10 C232.77,202.00 231.16,202.78 228.89,202.33 C225.44,201.64 217.98,205.74 220.16,207.12 C222.60,208.66 227.69,208.03 230.47,205.84 L 233.21 203.69 L 231.64 206.72 C230.78,208.39 229.05,209.99 227.79,210.28 C220.22,212.04 215.44,214.68 213.75,218.03 C212.74,220.05 212.42,221.64 213.00,221.83 C214.95,222.49 221.52,218.45 222.76,215.84 C224.12,212.97 230.00,210.12 230.00,212.33 C230.00,213.00 229.29,214.57 228.43,215.80 C226.65,218.34 227.23,223.12 229.55,225.04 C230.69,225.99 231.16,225.70 231.98,223.54 C233.28,220.13 233.29,216.30 232.00,215.50 C230.87,214.80 231.72,210.05 233.24,208.50 C233.89,207.84 234.00,208.26 233.56,209.71 C233.05,211.38 233.74,212.82 236.42,215.71 L 239.95 219.50 L 239.97 215.68 C240.00,211.22 238.53,208.00 236.46,208.00 C235.66,208.00 235.00,207.53 235.00,206.95 C235.00,205.12 237.71,200.57 240.04,198.50 L 242.29 196.50 L 241.73 199.00 C241.42,200.38 240.89,202.40 240.56,203.50 C240.19,204.71 240.81,206.89 242.12,209.00 C244.10,212.20 244.36,212.33 245.07,210.50 C246.35,207.25 246.11,202.33 244.60,201.09 C241.62,198.61 245.44,193.45 252.38,190.59 L 256.26 188.99 L 255.72 193.07 C255.42,195.31 254.03,198.80 252.64,200.82 C251.24,202.85 249.66,206.51 249.11,208.96 C248.34,212.43 246.84,214.66 242.31,219.04 C239.11,222.13 235.92,225.41 235.21,226.33 C233.45,228.61 230.56,228.37 223.57,225.37 ZM 173.00 221.50 C173.00,219.06 172.55,218.00 171.50,218.00 C170.45,218.00 170.00,216.94 170.00,214.50 C170.00,211.67 169.62,211.00 168.00,211.00 C166.90,211.00 166.00,210.53 166.00,209.95 C166.00,209.30 168.21,209.02 171.75,209.20 C177.49,209.50 177.50,209.51 179.63,214.00 C180.81,216.48 182.08,219.96 182.46,221.75 L 183.16 225.00 L 178.08 225.00 L 173.00 225.00 L 173.00 221.50 ZM 229.57 220.70 C229.13,219.17 229.04,217.63 229.38,217.29 C230.50,216.17 231.16,217.76 230.77,220.66 L 230.39 223.50 L 229.57 220.70 ZM 160.00 219.11 C160.00,217.04 160.47,216.26 161.64,216.36 C162.55,216.44 163.50,215.87 163.77,215.11 C164.13,214.08 163.58,213.85 161.66,214.21 C160.23,214.49 159.30,214.33 159.59,213.86 C159.88,213.38 161.89,213.00 164.06,213.00 L 168.00 213.00 L 168.00 217.50 L 168.00 222.00 L 164.00 222.00 C160.26,222.00 160.00,221.81 160.00,219.11 ZM 146.00 220.00 C146.00,219.45 146.45,219.00 147.00,219.00 C147.55,219.00 148.00,219.45 148.00,220.00 C148.00,220.55 147.55,221.00 147.00,221.00 C146.45,221.00 146.00,220.55 146.00,220.00 ZM 152.00 220.11 C153.54,219.68 154.62,218.57 154.82,217.21 C155.31,213.79 158.00,214.46 158.00,218.00 C158.00,220.88 157.83,221.00 153.75,220.90 C150.34,220.82 150.00,220.66 152.00,220.11 ZM 216.50 217.00 C218.39,214.91 221.00,214.31 221.00,215.96 C221.00,217.06 217.75,219.00 215.91,219.00 C215.15,219.00 215.37,218.25 216.50,217.00 ZM 236.20 213.80 C234.67,212.27 234.64,209.71 236.15,210.22 C237.49,210.66 239.32,215.00 238.17,215.00 C237.75,215.00 236.86,214.46 236.20,213.80 ZM 161.00 208.09 C161.00,205.69 161.34,205.28 162.99,205.71 C165.62,206.39 166.66,203.61 164.96,200.43 C164.25,199.10 163.89,197.77 164.18,197.49 C164.85,196.82 172.57,202.95 174.47,205.65 C175.90,207.70 175.82,207.74 170.81,207.62 C166.70,207.51 165.59,207.83 165.23,209.24 C164.97,210.21 163.92,211.00 162.88,211.00 C161.47,211.00 161.00,210.27 161.00,208.09 ZM 139.00 208.00 C139.00,207.45 139.45,207.00 140.00,207.00 C140.55,207.00 141.00,207.45 141.00,208.00 C141.00,208.55 140.55,209.00 140.00,209.00 C139.45,209.00 139.00,208.55 139.00,208.00 ZM 242.47 205.90 C242.10,204.74 242.30,203.30 242.90,202.70 C243.70,201.90 244.00,202.47 244.00,204.80 C244.00,208.49 243.42,208.91 242.47,205.90 ZM 152.72 205.18 C151.39,204.93 151.08,203.63 151.12,198.43 C151.18,191.23 151.48,191.01 157.88,193.57 C162.49,195.41 163.59,198.17 161.19,201.83 C160.26,203.25 159.61,204.66 159.75,204.96 C160.02,205.55 155.38,205.70 152.72,205.18 ZM 225.50 204.51 C228.71,203.09 229.60,203.22 228.54,204.93 C228.18,205.52 226.67,205.96 225.19,205.92 L 222.50 205.84 L 225.50 204.51 ZM 162.00 203.00 C162.00,202.45 162.45,202.00 163.00,202.00 C163.55,202.00 164.00,202.45 164.00,203.00 C164.00,203.55 163.55,204.00 163.00,204.00 C162.45,204.00 162.00,203.55 162.00,203.00 ZM 145.00 201.00 C145.00,200.45 145.45,200.00 146.00,200.00 C146.55,200.00 147.00,200.45 147.00,201.00 C147.00,201.55 146.55,202.00 146.00,202.00 C145.45,202.00 145.00,201.55 145.00,201.00 ZM 137.00 195.00 C137.00,194.45 137.45,194.00 138.00,194.00 C138.55,194.00 139.00,194.45 139.00,195.00 C139.00,195.55 138.55,196.00 138.00,196.00 C137.45,196.00 137.00,195.55 137.00,195.00 ZM 257.25 182.86 C256.56,180.93 256.00,178.18 256.00,176.74 C256.00,175.30 255.55,173.84 255.01,173.50 C254.46,173.17 253.49,171.91 252.85,170.72 C251.72,168.61 251.75,168.59 254.09,170.13 C256.97,172.03 259.21,178.11 258.80,182.91 L 258.50 186.36 L 257.25 182.86 ZM 249.86 182.49 C244.82,179.87 241.75,174.69 244.58,173.61 C246.77,172.77 246.28,163.00 244.05,163.00 C242.47,163.00 239.69,169.75 240.49,171.62 C243.32,178.21 240.77,178.63 237.16,172.16 L 234.83 167.96 L 237.77 165.21 C240.64,162.53 242.70,158.37 241.67,157.34 C240.81,156.48 234.19,160.05 233.55,161.72 C233.22,162.58 233.19,164.23 233.47,165.39 C233.75,166.55 233.27,165.93 232.39,164.02 C231.19,161.39 231.07,160.11 231.90,158.78 C233.37,156.44 233.23,153.05 231.56,150.02 L 230.19 147.54 L 228.41 151.27 C226.72,154.81 226.72,155.18 228.36,158.62 C229.31,160.62 229.86,162.48 229.57,162.76 C228.42,163.92 223.10,160.69 222.81,158.65 C222.48,156.33 216.33,153.66 212.58,154.21 C210.71,154.48 210.78,154.74 213.53,157.80 C215.17,159.61 217.62,161.20 219.00,161.33 C220.38,161.46 222.94,162.34 224.70,163.28 C226.46,164.23 228.49,165.00 229.20,165.01 C229.92,165.01 231.02,166.14 231.66,167.51 C232.29,168.88 232.40,170.00 231.91,170.00 C231.41,170.00 231.00,169.59 231.00,169.10 C231.00,167.63 225.77,166.37 222.14,166.96 C218.92,167.48 218.85,167.57 220.64,169.12 C223.84,171.91 227.10,173.19 229.46,172.60 C231.06,172.20 232.90,172.92 235.62,175.02 C237.75,176.67 241.50,179.37 243.95,181.01 C249.03,184.43 248.54,184.65 240.93,182.39 C226.05,177.97 214.85,168.33 210.60,156.27 L 209.18 152.27 L 213.34 152.72 C216.63,153.09 218.72,152.54 223.35,150.09 C226.57,148.39 230.20,147.00 231.41,147.00 C232.82,147.00 236.41,149.73 241.27,154.49 C247.29,160.40 249.04,162.78 249.55,165.74 C249.90,167.81 250.97,170.62 251.93,172.00 C252.89,173.38 253.93,176.07 254.25,178.00 C254.57,179.93 255.14,182.29 255.52,183.25 C256.43,185.54 255.46,185.41 249.86,182.49 ZM 151.35 175.25 L 151.50 168.50 L 156.25 168.20 C160.54,167.92 161.00,167.65 161.00,165.45 C161.00,163.67 161.55,163.00 163.00,163.00 C164.11,163.00 165.00,163.67 165.00,164.50 C165.00,165.66 166.32,166.01 170.75,166.04 L 176.50 166.07 L 170.55 171.68 C167.03,174.99 164.43,176.78 164.19,176.06 C163.96,175.38 164.28,174.32 164.89,173.71 C166.54,172.06 166.24,169.03 164.36,168.31 C162.02,167.41 159.61,170.82 161.21,172.75 C163.66,175.70 162.80,177.88 158.34,179.97 C151.51,183.18 151.18,182.96 151.35,175.25 ZM 137.00 179.00 C137.00,178.45 137.45,178.00 138.00,178.00 C138.55,178.00 139.00,178.45 139.00,179.00 C139.00,179.55 138.55,180.00 138.00,180.00 C137.45,180.00 137.00,179.55 137.00,179.00 ZM 145.00 173.00 C145.00,172.45 145.45,172.00 146.00,172.00 C146.55,172.00 147.00,172.45 147.00,173.00 C147.00,173.55 146.55,174.00 146.00,174.00 C145.45,174.00 145.00,173.55 145.00,173.00 ZM 162.00 171.00 C162.00,170.45 162.45,170.00 163.00,170.00 C163.55,170.00 164.00,170.45 164.00,171.00 C164.00,171.55 163.55,172.00 163.00,172.00 C162.45,172.00 162.00,171.55 162.00,171.00 ZM 242.02 170.25 C242.02,169.29 242.47,167.82 243.00,167.00 C243.74,165.86 243.97,166.28 243.98,168.75 C243.99,170.54 243.55,172.00 243.00,172.00 C242.45,172.00 242.01,171.21 242.02,170.25 ZM 225.03 170.04 C224.22,169.53 223.79,168.88 224.07,168.59 C224.85,167.82 229.00,169.10 229.00,170.12 C229.00,171.26 226.90,171.22 225.03,170.04 ZM 139.00 165.44 C139.00,164.58 139.46,164.16 140.02,164.51 C140.58,164.86 140.77,165.56 140.46,166.07 C139.60,167.46 139.00,167.20 139.00,165.44 ZM 251.00 164.36 C251.00,162.41 249.05,159.79 243.46,154.24 C239.31,150.12 236.10,146.57 236.32,146.35 C237.20,145.47 239.83,147.26 240.30,149.06 C240.58,150.11 241.98,151.42 243.42,151.97 C244.86,152.52 246.43,153.98 246.91,155.23 C247.39,156.48 248.96,158.59 250.39,159.92 C252.93,162.29 254.00,167.00 252.00,167.00 C251.45,167.00 251.00,165.81 251.00,164.36 ZM 166.50 164.00 C166.16,163.45 166.81,163.00 167.94,163.00 C169.63,163.00 170.00,162.37 170.00,159.50 C170.00,157.06 170.45,156.00 171.50,156.00 C172.55,156.00 173.00,154.94 173.00,152.50 L 173.00 149.00 L 178.00 149.00 C180.75,149.00 183.00,149.24 183.00,149.53 C183.00,150.91 178.70,162.65 177.79,163.75 C176.56,165.23 167.39,165.44 166.50,164.00 ZM 235.00 163.20 C235.00,161.95 237.26,160.00 238.71,160.00 C239.77,160.00 239.78,160.38 238.77,162.00 C237.54,163.96 235.00,164.77 235.00,163.20 ZM 161.75 160.29 C164.54,159.76 164.69,157.99 162.00,157.29 C160.71,156.95 160.00,155.93 160.00,154.38 C160.00,152.27 160.45,152.00 164.00,152.00 L 168.00 152.00 L 168.00 156.50 L 168.00 161.00 L 163.75 160.86 C161.41,160.79 160.51,160.53 161.75,160.29 ZM 215.86 158.03 C213.28,155.88 214.40,155.44 218.50,157.00 C219.94,157.55 220.84,158.45 220.50,159.00 C219.59,160.46 218.51,160.24 215.86,158.03 ZM 154.82 156.79 C154.62,155.43 153.54,154.32 152.00,153.89 C150.00,153.34 150.34,153.18 153.75,153.10 C157.83,153.00 158.00,153.12 158.00,156.00 C158.00,159.54 155.31,160.21 154.82,156.79 ZM 229.00 155.06 C229.00,153.99 229.45,152.84 230.00,152.50 C230.57,152.15 231.00,152.99 231.00,154.44 C231.00,155.85 230.55,157.00 230.00,157.00 C229.45,157.00 229.00,156.13 229.00,155.06 ZM 146.00 154.00 C146.00,153.45 146.45,153.00 147.00,153.00 C147.55,153.00 148.00,153.45 148.00,154.00 C148.00,154.55 147.55,155.00 147.00,155.00 C146.45,155.00 146.00,154.55 146.00,154.00 ZM 170.17 152.25 C170.03,150.38 169.41,150.00 166.50,150.00 L 163.00 150.00 L 163.00 142.12 C163.00,136.69 163.42,133.89 164.36,133.11 C165.47,132.20 165.63,132.46 165.25,134.48 C164.63,137.70 167.35,138.90 169.94,136.56 C172.09,134.61 179.10,134.75 179.76,136.75 C180.42,138.76 177.09,139.39 175.14,137.63 C173.63,136.26 173.09,136.22 171.52,137.36 C170.39,138.19 169.92,139.35 170.31,140.36 C171.00,142.16 174.51,142.59 175.50,141.00 C175.84,140.45 177.44,140.00 179.05,140.00 C181.36,140.00 181.93,139.59 181.74,138.06 C181.61,137.00 181.95,135.99 182.50,135.81 C183.69,135.44 184.39,141.30 183.55,144.64 C183.02,146.79 182.43,147.00 177.04,147.00 L 171.12 147.00 L 170.73 150.75 C170.51,152.81 170.26,153.49 170.17,152.25 ZM 209.93 149.42 C208.21,147.34 207.54,137.25 208.89,133.75 C209.73,131.58 210.60,131.00 213.01,131.00 C217.67,131.00 222.57,133.47 224.55,136.82 C225.53,138.47 227.43,140.33 228.77,140.94 C230.84,141.88 231.01,142.28 229.90,143.62 C229.18,144.48 226.33,146.49 223.55,148.09 C217.88,151.33 212.00,151.91 209.93,149.42 ZM 215.50 147.00 C215.50,146.19 214.71,145.38 213.75,145.19 C212.52,144.95 212.00,145.49 212.00,147.00 C212.00,148.51 212.52,149.05 213.75,148.81 C214.71,148.62 215.50,147.81 215.50,147.00 ZM 223.80 144.80 C227.19,141.41 223.20,135.75 219.00,138.00 C215.47,139.89 217.00,146.00 221.00,146.00 C221.88,146.00 223.14,145.46 223.80,144.80 ZM 172.58 140.13 C172.15,139.44 172.07,138.60 172.40,138.27 C173.29,137.37 174.27,138.69 173.79,140.14 C173.45,141.15 173.21,141.15 172.58,140.13 ZM 229.20 139.32 C228.48,139.03 226.82,137.10 225.51,135.01 C223.54,131.89 222.22,131.01 218.03,130.01 C215.22,129.33 212.02,129.02 210.91,129.31 C209.63,129.65 209.03,129.41 209.28,128.67 C209.73,127.37 215.39,127.30 221.41,128.52 C226.03,129.46 233.55,136.13 232.64,138.49 C232.04,140.05 231.41,140.21 229.20,139.32 ZM 166.00 135.00 C166.00,134.45 166.68,134.00 167.50,134.00 C168.32,134.00 169.00,134.45 169.00,135.00 C169.00,135.55 168.32,136.00 167.50,136.00 C166.68,136.00 166.00,135.55 166.00,135.00 ZM 169.50 133.00 C169.16,132.45 169.81,132.00 170.94,132.00 C172.47,132.00 173.00,131.36 173.00,129.50 C173.00,127.17 173.33,127.00 178.00,127.00 L 183.00 127.00 L 183.00 130.50 L 183.00 134.00 L 176.56 134.00 C173.02,134.00 169.84,133.55 169.50,133.00 ZM 161.00 132.00 C161.00,131.45 161.45,131.00 162.00,131.00 C162.55,131.00 163.00,131.45 163.00,132.00 C163.00,132.55 162.55,133.00 162.00,133.00 C161.45,133.00 161.00,132.55 161.00,132.00 ZM 98.30 188.20 C96.72,187.20 97.05,183.00 98.71,183.00 C99.48,183.00 100.00,184.22 100.00,186.00 C100.00,189.31 100.01,189.29 98.30,188.20 ZM 102.00 185.61 C102.00,184.29 102.68,182.95 103.50,182.64 C104.63,182.21 105.00,182.80 105.00,185.03 C105.00,187.00 104.50,188.00 103.50,188.00 C102.58,188.00 102.00,187.07 102.00,185.61 ZM 192.39 196.02 C189.24,194.75 186.00,190.11 186.00,186.88 C186.00,185.15 187.14,182.76 188.90,180.79 C191.30,178.10 192.52,177.55 196.00,177.55 C205.99,177.55 209.63,191.04 200.85,195.57 C197.78,197.17 195.52,197.28 192.39,196.02 ZM 202.08 193.08 C208.99,186.16 202.16,175.96 192.81,179.22 C189.24,180.46 186.60,185.25 187.50,188.86 C188.24,191.82 190.76,195.00 192.38,195.00 C192.96,195.00 192.48,194.32 191.30,193.50 C184.32,188.61 190.68,177.03 198.67,180.06 C206.54,183.06 205.42,192.99 196.98,194.98 C193.70,195.75 193.67,195.80 196.33,195.90 C198.21,195.97 200.13,195.02 202.08,193.08 ZM 218.67 233.57 C218.37,232.79 218.79,231.59 219.61,230.91 C220.81,229.91 221.41,229.98 222.67,231.24 C223.53,232.10 223.93,233.30 223.56,233.90 C222.59,235.48 219.31,235.26 218.67,233.57 ZM 218.67 142.57 C217.83,140.40 220.63,138.45 222.44,139.95 C224.26,141.46 223.36,144.00 221.00,144.00 C220.02,144.00 218.97,143.36 218.67,142.57 Z" fill="rgba(0,0,0,1)"/>
</g>
</svg>