<?xml version="1.0" standalone="no"?>
<!DOCTYPE svg PUBLIC "-//W3C//DTD SVG 20010904//EN"
 "http://www.w3.org/TR/2001/REC-SVG-20010904/DTD/svg10.dtd">
<svg version="1.0" xmlns="http://www.w3.org/2000/svg"
 width="2778.000000pt" height="1676.000000pt" viewBox="0 0 2778.000000 1676.000000"
 preserveAspectRatio="xMidYMid meet">

<g transform="translate(0.000000,1676.000000) scale(0.100000,-0.100000)"
fill="#000000" stroke="none">
<path d="M63 16700 c-18 -10 -39 -33 -48 -49 -13 -27 -15 -857 -15 -8341 l0
-8310 13890 0 13890 0 0 8360 0 8360 -13842 0 c-13712 0 -13843 0 -13875 -20z
m5405 -750 c1 -58 -1 -161 -5 -230 -7 -107 -10 -125 -25 -128 -13 -2 -18 3
-18 17 0 26 -1 26 -47 1 -107 -57 -206 26 -190 161 13 107 70 163 157 156 25
-2 53 -7 63 -11 15 -7 17 -2 17 45 0 72 9 101 29 97 13 -3 16 -21 19 -108z
m-3453 88 c27 -3 30 -7 33 -41 4 -43 -23 -64 -40 -33 -6 10 -25 24 -44 32
-120 50 -257 -135 -200 -269 42 -99 165 -121 252 -45 27 24 38 28 47 19 18
-18 -11 -60 -58 -85 -29 -15 -58 -21 -107 -21 -58 0 -72 4 -109 30 -58 41 -84
94 -83 170 2 145 109 263 229 251 28 -3 64 -7 80 -8z m1170 -23 c0 -33 -28
-47 -39 -19 -10 25 3 56 22 52 11 -2 17 -13 17 -33z m1275 17 c43 -21 69 -67
49 -88 -16 -15 -29 -9 -45 21 -18 32 -54 46 -111 42 -62 -4 -93 -27 -93 -68 0
-36 33 -62 117 -90 90 -30 138 -74 138 -126 0 -52 -27 -90 -78 -114 -83 -37
-194 -12 -235 53 -38 60 -1 80 42 23 47 -61 150 -72 202 -20 51 51 19 109 -77
140 -116 38 -159 75 -159 139 0 33 44 84 83 95 53 15 129 12 167 -7z m218 -44
l3 -57 47 -3 c34 -2 47 -7 47 -18 0 -11 -13 -16 -47 -18 l-47 -3 -3 -147 c-3
-139 -4 -147 -23 -147 -19 0 -20 8 -23 148 l-3 147 -44 0 c-38 0 -45 3 -45 20
0 17 7 20 45 20 l45 0 0 44 c0 56 8 78 29 74 12 -2 17 -17 19 -60z m957 43 c8
-26 -5 -53 -24 -49 -29 6 -27 68 3 68 8 0 17 -8 21 -19z m-3269 -117 c91 -43
108 -177 34 -266 -105 -127 -291 -22 -250 141 28 112 125 168 216 125z m224
-31 l0 -48 26 33 c61 77 146 83 184 13 12 -24 13 -24 26 -6 42 57 115 71 161
31 l28 -24 0 -144 c0 -120 -2 -143 -15 -143 -12 0 -16 24 -20 133 -5 117 -8
135 -24 148 -26 18 -42 18 -76 -2 -48 -29 -60 -62 -60 -166 0 -99 -8 -125 -34
-115 -13 5 -16 26 -16 129 0 128 -11 168 -47 168 -26 0 -73 -33 -100 -72 -22
-33 -26 -52 -31 -134 -4 -80 -7 -94 -21 -92 -14 3 -16 25 -19 158 -3 165 -1
180 23 180 11 0 15 -12 15 -47z m595 -120 c0 -89 -3 -165 -7 -168 -4 -4 -14
-5 -23 -2 -13 5 -15 31 -15 165 0 87 3 162 7 166 4 4 14 5 23 4 13 -3 15 -27
15 -165z m335 145 c19 -13 35 -29 38 -35 7 -23 -27 -25 -54 -4 -71 56 -164
-15 -164 -125 1 -70 42 -114 107 -114 29 0 72 23 86 47 9 15 33 17 42 3 18
-29 -69 -90 -129 -90 -55 0 -112 34 -136 80 -27 53 -25 96 6 158 47 95 133
128 204 80z m330 -3 c14 -13 20 -29 18 -49 -3 -35 -30 -43 -36 -11 -7 34 -23
45 -66 45 -52 0 -79 -18 -74 -50 2 -19 17 -29 72 -52 87 -36 106 -52 106 -94
0 -67 -80 -119 -154 -100 -39 10 -86 55 -86 82 0 33 16 30 54 -11 26 -28 41
-35 70 -35 68 0 101 69 46 97 -14 7 -49 23 -79 35 -127 51 -89 174 51 165 38
-2 64 -10 78 -22z m1018 -98 c-2 -103 1 -128 15 -150 22 -35 71 -36 118 -4
l34 23 5 121 c3 67 8 125 12 128 4 4 14 5 23 1 13 -5 15 -28 13 -168 -3 -148
-5 -163 -21 -166 -12 -2 -20 4 -24 17 l-5 20 -39 -19 c-92 -47 -161 -10 -174
94 -8 63 -2 196 9 214 4 7 14 12 21 12 12 0 14 -23 13 -123z m768 99 c3 -12 2
-88 -3 -167 -6 -118 -11 -144 -23 -144 -13 0 -15 25 -18 155 -1 85 0 160 2
167 9 21 35 15 42 -11z m330 8 c35 -17 70 -66 59 -84 -3 -5 -55 -37 -116 -71
-60 -34 -108 -66 -106 -73 7 -21 70 -56 101 -56 17 0 46 9 64 20 40 24 65 26
60 4 -7 -35 -56 -59 -122 -59 -54 0 -68 4 -100 29 -68 51 -86 145 -43 221 44
78 126 106 203 69z m324 3 c30 -15 53 -58 44 -81 -9 -23 -38 -16 -42 9 -7 34
-23 45 -64 45 -48 0 -78 -15 -78 -39 0 -25 26 -45 88 -67 71 -25 92 -46 92
-92 -1 -40 -11 -59 -50 -85 -64 -44 -190 6 -190 75 0 27 18 22 54 -17 26 -27
41 -35 67 -35 44 0 79 24 79 55 0 28 -24 47 -90 70 -60 21 -90 51 -90 89 0 39
8 51 45 70 36 19 101 20 135 3z m7625 -537 c15 -62 20 -70 40 -70 13 0 30 -3
38 -6 10 -4 25 13 48 55 19 35 40 61 49 60 8 0 42 -8 75 -17 l60 -17 1 -69 c1
-62 4 -70 25 -82 39 -22 56 -16 96 31 20 25 42 45 47 45 5 0 37 -16 71 -36
l62 -36 -19 -67 -18 -66 27 -22 c16 -13 31 -23 35 -23 4 0 30 14 56 30 27 17
53 30 58 30 6 0 33 -24 61 -52 l52 -53 -35 -57 -35 -57 22 -31 c26 -35 22 -34
85 -15 27 8 56 15 64 15 8 0 31 -29 50 -65 l35 -64 -48 -49 -48 -48 16 -37 15
-37 68 0 69 0 16 -60 c10 -33 17 -66 17 -74 0 -8 -25 -28 -55 -45 -50 -28 -55
-34 -55 -66 0 -39 9 -46 88 -66 l52 -13 0 -77 0 -77 -52 -12 c-79 -19 -88 -25
-88 -68 0 -35 3 -39 55 -66 62 -32 64 -39 36 -126 l-17 -55 -68 0 c-68 0 -68
0 -82 -34 -15 -35 -15 -35 31 -81 25 -25 45 -50 45 -54 0 -5 -16 -37 -35 -72
l-35 -62 -66 20 c-63 19 -66 19 -80 1 -34 -43 -34 -48 0 -104 l34 -54 -55 -56
-55 -57 -56 33 c-57 35 -62 35 -105 1 -18 -14 -18 -17 1 -80 20 -65 20 -67 1
-76 -18 -10 -18 -12 -2 -46 16 -33 19 -35 55 -29 52 9 81 -11 117 -83 23 -46
81 -209 81 -228 0 -2 -12 -4 -27 -4 -16 0 -71 -12 -122 -25 -105 -28 -168 -32
-194 -12 -9 6 -27 41 -41 77 -29 77 -18 75 -204 42 -241 -43 -509 -39 -755 10
-63 12 -111 17 -116 12 -4 -5 -18 -36 -31 -69 -13 -33 -30 -66 -38 -72 -24
-20 -89 -16 -193 12 -51 13 -106 25 -121 25 -16 0 -28 4 -28 9 0 5 11 42 24
83 61 185 99 234 172 223 39 -6 42 -4 54 26 12 28 12 33 -5 45 -17 13 -17 16
-1 80 l17 67 -28 23 c-15 13 -30 23 -33 23 -3 0 -30 -15 -60 -34 l-55 -34 -52
52 c-29 28 -53 55 -53 61 0 5 14 31 30 58 17 26 30 52 30 56 -1 4 -11 19 -23
34 l-22 27 -62 -16 c-74 -18 -76 -17 -118 61 l-29 56 49 43 49 44 -15 39 -15
39 -68 0 -69 0 -18 65 c-11 36 -19 70 -19 75 0 6 26 25 58 42 57 32 58 32 54
72 l-4 39 -69 17 -70 17 3 77 3 76 64 17 c35 9 64 18 66 20 1 2 5 19 8 39 5
35 4 37 -54 69 -32 19 -59 38 -59 43 0 5 8 38 17 73 l17 64 68 0 c68 0 68 0
85 35 l17 35 -49 50 -49 50 24 44 c50 92 49 92 117 73 75 -21 68 -22 93 13
l21 30 -33 59 -33 60 53 53 53 53 60 -33 59 -33 30 21 c35 25 34 18 13 93 -19
68 -19 67 73 117 l44 24 49 -48 c49 -48 49 -48 85 -35 l36 13 0 71 0 71 64 17
c35 9 69 17 75 17 5 0 24 -27 41 -59 32 -59 32 -59 68 -54 42 7 48 13 57 61
15 80 17 82 99 82 l74 0 17 -70z m-10547 -373 l3 -87 28 21 c40 29 113 37 146
15 91 -60 86 -249 -7 -306 -36 -21 -100 -26 -142 -10 -16 6 -27 6 -31 0 -4 -6
-13 -10 -21 -10 -12 0 -14 37 -14 236 0 219 1 235 18 232 14 -3 17 -17 20 -91z
m-720 -131 l2 -209 115 7 c111 7 115 7 115 -13 0 -25 -24 -30 -170 -33 l-105
-3 -3 220 c-1 121 0 226 3 233 3 7 13 12 22 10 16 -3 18 -22 21 -212z m1847
194 c0 -10 -13 -16 -42 -18 l-43 -3 0 -189 0 -189 43 -3 c29 -2 42 -8 42 -18
0 -12 -18 -15 -105 -15 -90 0 -105 2 -108 17 -3 13 6 17 40 20 l43 3 0 185 0
185 -42 3 c-40 3 -54 17 -36 36 4 4 52 5 107 4 82 -2 101 -6 101 -18z m290 0
c0 -10 -13 -16 -42 -18 l-43 -3 0 -189 0 -189 43 -3 c29 -2 42 -8 42 -18 0
-12 -18 -15 -105 -15 -90 0 -105 2 -108 17 -3 13 6 17 40 20 l43 3 0 185 0
185 -42 3 c-40 3 -54 17 -36 36 4 4 52 5 107 4 82 -2 101 -6 101 -18z m395 10
c0 -5 1 -13 3 -17 1 -5 -32 -10 -73 -13 l-75 -5 -5 -205 c-4 -173 -7 -205 -20
-205 -13 0 -15 31 -18 208 l-2 207 -75 0 c-68 0 -75 2 -75 20 0 19 7 20 170
20 107 0 170 -4 170 -10z m276 -2 c4 -6 0 -16 -9 -23 -15 -10 -17 -34 -17
-161 0 -82 -5 -166 -11 -187 -26 -94 -178 -105 -224 -16 -20 37 -16 73 7 77
12 2 20 -8 28 -37 11 -43 30 -55 85 -53 58 2 65 25 65 208 l0 164 -50 0 c-43
0 -50 3 -50 20 0 18 7 20 84 20 53 0 87 -4 92 -12z m-1423 -39 c49 -13 115
-73 138 -124 35 -76 19 -173 -33 -209 -34 -24 -91 -20 -125 8 -28 24 -29 24
-52 5 -31 -25 -85 -25 -111 1 -64 64 -6 200 85 200 47 0 85 -19 85 -43 0 -15
-5 -18 -22 -13 -67 19 -76 18 -102 -7 -46 -46 -28 -129 23 -112 12 3 33 26 47
51 25 42 53 58 55 32 0 -7 2 -26 2 -43 2 -20 10 -34 30 -45 24 -13 30 -13 54
0 59 33 51 145 -16 211 -133 133 -363 10 -337 -181 17 -121 149 -199 266 -155
77 29 92 30 88 9 -11 -58 -189 -82 -274 -37 -47 25 -91 73 -111 120 -19 47
-16 150 6 198 22 48 97 118 143 132 44 14 114 15 161 2z m-872 -81 l39 -11 0
-159 c0 -151 -1 -158 -20 -158 -11 0 -20 7 -20 15 0 18 -1 18 -36 0 -65 -34
-153 -5 -180 60 -27 64 -12 157 34 209 47 53 107 67 183 44z m8033 -6824 c3
-26 6 -73 6 -106 l0 -59 35 36 c59 58 121 60 152 2 24 -44 27 -282 3 -282 -12
0 -16 22 -21 117 -8 167 -33 199 -104 137 -51 -45 -62 -72 -70 -172 -6 -74 -9
-88 -23 -85 -15 3 -17 27 -20 218 -1 118 0 220 2 227 12 30 33 12 40 -33z
m2081 -184 c0 -218 -1 -225 -20 -225 -19 0 -20 8 -23 205 -3 225 0 253 26 248
15 -3 17 -24 17 -228z m361 216 c3 -7 1 -110 -3 -227 -7 -192 -10 -214 -25
-217 -13 -2 -18 3 -18 17 0 25 3 25 -45 1 -101 -52 -185 11 -185 137 1 126 98
204 204 163 l26 -10 0 59 c0 33 3 66 6 75 8 20 33 21 40 2z m834 -6 c0 -16 -7
-20 -33 -20 -45 0 -77 -25 -77 -60 0 -27 2 -29 48 -32 34 -2 47 -7 47 -18 0
-11 -13 -16 -47 -18 l-46 -3 -4 -139 c-1 -76 -6 -142 -10 -145 -4 -4 -14 -5
-23 -2 -12 5 -15 29 -15 147 l0 140 -30 0 c-23 0 -30 4 -30 20 0 15 7 20 29
20 25 0 30 5 35 33 12 66 48 95 119 96 31 1 37 -2 37 -19z m-7201 -11 c49 -27
80 -75 90 -138 15 -98 -15 -189 -82 -246 -71 -61 -155 -59 -218 4 -103 102
-65 323 65 382 54 24 100 24 145 -2z m1051 -82 c0 -57 2 -106 5 -109 3 -3 29
-1 58 3 28 4 91 13 139 19 l87 12 3 86 c2 69 6 87 18 87 13 0 15 -31 15 -220
0 -189 -2 -220 -15 -220 -12 0 -16 21 -20 111 l-5 110 -130 -18 c-71 -10 -136
-20 -142 -23 -9 -3 -13 -32 -13 -95 0 -82 -2 -91 -17 -88 -16 3 -18 22 -21
213 -1 115 0 215 2 222 3 7 12 13 21 13 12 0 15 -17 15 -103z m1945 92 c10
-16 -4 -59 -19 -59 -18 0 -26 22 -19 49 6 22 27 28 38 10z m753 -52 l3 -56 47
-3 c34 -2 47 -7 47 -18 0 -11 -13 -16 -47 -18 l-47 -3 -3 -142 c-3 -118 -6
-142 -18 -142 -12 0 -15 24 -18 142 l-3 142 -47 3 c-34 2 -47 7 -47 18 0 11
13 16 48 18 l47 3 0 53 c0 29 3 56 7 60 17 16 28 -5 31 -57z m1096 -109 c28
-92 53 -168 56 -168 3 0 30 75 60 166 52 157 72 194 90 164 4 -6 27 -83 51
-171 24 -87 46 -159 49 -159 3 0 21 42 39 93 71 196 93 247 106 247 8 0 16 -4
20 -9 8 -14 -146 -432 -163 -438 -20 -8 -24 1 -72 178 -24 88 -47 156 -51 152
-4 -5 -31 -81 -59 -170 -51 -161 -67 -187 -88 -145 -16 30 -122 389 -122 412
0 15 5 20 17 18 12 -2 30 -47 67 -170z m2886 159 c21 -2 26 -8 28 -36 5 -45
-15 -57 -44 -26 -72 78 -202 8 -234 -125 -16 -66 -6 -112 31 -155 55 -63 156
-67 211 -10 12 14 31 25 41 25 33 0 15 -42 -31 -75 -38 -26 -52 -30 -111 -30
-57 0 -74 4 -109 28 -54 35 -82 90 -82 160 0 101 51 195 128 237 29 16 49 19
92 15 30 -3 66 -7 80 -8z m1075 2 c10 -16 -4 -59 -19 -59 -18 0 -26 22 -19 49
6 22 27 28 38 10z m-8593 -229 c-3 -138 6 -164 59 -168 23 -2 46 4 69 20 l35
24 5 119 c4 104 7 120 23 123 16 3 17 -8 15 -160 -3 -146 -5 -163 -20 -166
-13 -2 -18 3 -18 17 0 26 -2 26 -42 1 -18 -11 -48 -20 -66 -20 -79 0 -102 43
-102 194 0 116 5 138 29 134 13 -3 15 -19 13 -118z m348 83 l0 -38 23 27 c59
70 147 62 147 -13 0 -22 -5 -29 -20 -29 -13 0 -20 7 -20 20 0 47 -63 32 -103
-24 -17 -24 -22 -50 -26 -130 -5 -81 -9 -101 -21 -101 -13 0 -15 25 -18 150
-3 160 -1 175 23 175 11 0 15 -11 15 -37z m1128 17 c71 -44 90 -156 39 -232
-106 -156 -306 -54 -252 129 31 103 132 152 213 103z m196 4 c3 -9 6 -26 6
-39 0 -22 1 -22 33 10 58 58 123 59 157 3 16 -26 20 -29 26 -15 9 25 67 57
103 57 72 0 95 -60 89 -230 -3 -87 -5 -95 -23 -95 -19 0 -20 8 -25 133 -4 103
-8 135 -20 142 -20 13 -34 12 -64 -2 -48 -21 -61 -54 -66 -168 -4 -86 -8 -105
-21 -108 -14 -3 -18 16 -25 134 -7 112 -12 139 -26 148 -26 16 -68 -4 -104
-50 -28 -37 -32 -51 -38 -135 -4 -51 -9 -95 -11 -97 -2 -3 -11 -2 -20 1 -13 5
-15 31 -15 160 0 85 3 157 7 160 11 12 31 7 37 -9z m701 2 c35 -15 74 -72 58
-86 -4 -5 -53 -34 -108 -66 -55 -31 -101 -58 -103 -59 -10 -8 15 -36 43 -49
45 -22 80 -20 126 6 63 35 69 -4 7 -42 -42 -27 -126 -23 -165 6 -52 39 -68 71
-68 137 0 49 5 69 24 95 47 67 114 88 186 58z m409 -145 c-2 -147 -9 -182 -33
-167 -12 8 -16 308 -4 320 4 4 14 5 23 4 13 -3 15 -26 14 -157z m146 99 l5
-53 17 36 c34 72 126 100 173 53 29 -29 37 -80 33 -206 -2 -76 -6 -95 -18 -95
-12 0 -16 23 -21 120 -7 135 -12 153 -44 161 -66 16 -130 -76 -143 -206 -5
-57 -11 -75 -22 -75 -13 0 -15 25 -18 150 -1 82 0 155 3 163 11 29 30 3 35
-48z m1283 51 c34 -13 67 -50 67 -75 0 -16 -25 -35 -105 -80 -58 -33 -105 -66
-105 -73 0 -19 60 -53 95 -53 17 0 48 9 69 21 44 23 70 13 45 -17 -37 -45
-119 -56 -183 -24 -70 34 -98 98 -82 185 8 38 57 102 90 115 29 12 80 12 109
1z m1125 -11 c71 -44 90 -156 39 -232 -106 -156 -306 -54 -252 129 31 103 132
152 213 103z m192 -17 l0 -38 23 27 c58 69 147 62 147 -12 0 -30 -28 -50 -35
-25 -3 8 -7 22 -10 30 -6 19 -29 19 -60 -1 -46 -30 -59 -63 -64 -169 -5 -80
-9 -100 -21 -100 -13 0 -15 25 -18 150 -3 160 -1 175 23 175 11 0 15 -11 15
-37z m1148 17 c71 -44 90 -156 39 -232 -67 -99 -193 -103 -243 -7 -22 44 -16
148 12 186 52 70 129 91 192 53z m1170 0 c46 -28 76 -98 67 -155 -12 -82 -84
-155 -154 -155 -95 0 -154 94 -127 201 28 108 130 160 214 109z m190 -28 l3
-41 35 39 c57 63 128 66 163 9 14 -23 20 -27 24 -15 9 24 68 56 102 56 69 -1
85 -37 85 -200 0 -120 -2 -131 -17 -128 -16 3 -19 19 -23 129 -6 159 -20 180
-90 144 -46 -24 -60 -62 -60 -162 0 -94 -8 -120 -34 -110 -13 5 -16 26 -16
131 0 100 -3 128 -16 140 -21 22 -46 20 -77 -4 -56 -44 -70 -77 -76 -174 -5
-72 -9 -91 -21 -91 -13 0 -15 25 -18 150 -1 82 0 155 3 163 10 26 30 5 33 -36z
m556 -115 c-1 -87 -4 -161 -7 -164 -4 -3 -13 -3 -22 0 -13 5 -15 31 -15 160 0
85 3 157 7 161 4 4 14 5 23 4 13 -3 15 -26 14 -161z m304 143 c19 -12 32 -28
32 -40 0 -25 -15 -25 -47 0 -68 53 -156 -16 -157 -122 -1 -44 3 -53 32 -79 47
-43 102 -38 158 13 17 15 23 16 32 6 22 -28 -59 -88 -118 -88 -112 0 -180 110
-134 218 41 98 127 138 202 92z m302 -5 c14 -13 20 -29 18 -49 -4 -40 -32 -42
-36 -4 -2 19 -11 30 -26 34 -68 17 -137 -24 -101 -60 9 -8 39 -23 67 -33 68
-24 98 -53 98 -95 -1 -36 -12 -55 -50 -81 -50 -34 -147 -10 -175 43 -13 25
-13 30 2 41 14 12 17 12 21 0 3 -8 15 -25 28 -38 42 -42 134 -21 134 31 0 30
-12 39 -77 60 -54 18 -103 63 -103 95 0 23 28 61 54 72 34 14 123 5 146 -16z
m-14010 -2552 c0 -48 -2 -54 -15 -43 -15 12 -21 90 -9 103 15 15 24 -8 24 -60z
m14 -100 c17 -15 24 -24 15 -21 -14 5 -16 -5 -18 -75 -3 -98 -11 -117 -11 -26
-1 61 -1 63 -15 39 -14 -25 -14 -25 -15 16 0 22 -6 46 -12 53 -10 11 -10 13 0
7 6 -4 12 -2 12 3 0 6 -6 11 -12 11 -9 0 -8 4 2 10 20 13 18 14 54 -17z m31
-51 c-3 -3 -11 0 -18 7 -9 10 -8 11 6 5 10 -3 15 -9 12 -12z m-55 -85 c0 -13
-5 -28 -11 -34 -7 -7 -12 -76 -13 -197 0 -110 -5 -186 -11 -186 -5 0 -4 -5 3
-12 7 -7 12 -22 12 -34 0 -12 7 -25 16 -28 8 -3 12 -2 9 4 -3 6 -3 15 1 21 8
14 24 -8 24 -35 0 -13 -5 -16 -17 -12 -9 4 -20 1 -24 -5 -13 -21 -27 0 -33 53
-7 54 9 399 20 457 7 36 24 42 24 8z m21 -383 c-8 -36 -9 -37 -10 -9 -6 113
-5 165 2 165 4 0 8 39 9 88 2 53 4 31 5 -59 2 -80 -1 -163 -6 -185z m-24 254
c-2 -13 -4 -3 -4 22 0 25 2 35 4 23 2 -13 2 -33 0 -45z m-10 -110 c-3 -8 -6
-5 -6 6 -1 11 2 17 5 13 3 -3 4 -12 1 -19z m41 -352 c-2 -11 -9 -22 -15 -22
-7 -1 -17 -2 -23 -3 -5 0 -10 -6 -10 -12 0 -7 10 -9 25 -5 14 4 25 2 25 -4 0
-5 -18 -10 -40 -10 -22 0 -40 5 -40 10 0 6 4 10 8 10 5 0 7 14 4 30 -3 25 -1
29 12 24 9 -3 16 -10 16 -16 0 -5 4 -7 10 -3 5 3 7 12 3 20 -4 11 -1 13 11 9
10 -4 16 -15 14 -28z m-115 -43 c-7 -2 -19 -2 -25 0 -7 3 -2 5 12 5 14 0 19
-2 13 -5z m24 -119 c-3 -3 -12 -4 -19 -1 -8 3 -5 6 6 6 11 1 17 -2 13 -5z
m140 0 c-3 -3 -12 -4 -19 -1 -8 3 -5 6 6 6 11 1 17 -2 13 -5z m22327 -2076 c8
-13 8 -23 0 -35 -10 -16 -31 -18 -163 -21 l-151 -3 0 -69 0 -69 131 -3 c113
-3 133 -6 143 -21 8 -12 8 -22 0 -35 -10 -14 -30 -17 -143 -20 l-131 -3 0 -79
0 -79 151 -3 c132 -3 153 -5 163 -20 8 -13 8 -23 0 -35 -10 -16 -32 -18 -189
-21 -122 -2 -182 1 -191 9 -19 16 -21 498 -2 517 9 9 61 12 192 10 158 -3 180
-5 190 -20z m614 -55 l3 -62 46 -3 c87 -6 87 -70 -1 -76 l-46 -3 0 -148 c0
-152 -5 -171 -42 -171 -30 0 -38 35 -38 179 l0 140 -41 3 c-49 3 -71 27 -53
56 7 11 26 18 53 20 l41 3 0 45 c0 62 14 86 48 82 26 -3 27 -6 30 -65z m-468
-82 c5 -11 10 -30 10 -42 0 -21 1 -21 21 5 47 60 127 74 178 31 40 -34 53 -99
49 -244 -2 -95 -6 -116 -20 -125 -13 -8 -23 -8 -35 0 -15 9 -19 32 -23 146 -5
144 -13 168 -55 168 -27 0 -78 -55 -100 -107 -8 -20 -15 -66 -15 -105 0 -76
-11 -108 -38 -108 -38 0 -42 18 -42 200 0 124 4 180 12 188 18 18 46 14 58 -7z
m833 5 c38 -15 87 -69 87 -95 0 -25 -22 -42 -138 -110 l-103 -59 27 -21 c35
-28 109 -28 144 -1 32 25 56 25 69 2 22 -42 -63 -102 -142 -102 -82 0 -149 45
-181 122 -53 126 37 276 167 278 21 0 52 -6 70 -14z m242 -13 l11 -22 21 21
c12 12 39 22 66 25 36 4 49 1 66 -16 42 -42 18 -143 -27 -114 -10 5 -18 20
-20 32 -6 37 -55 23 -88 -26 -15 -22 -20 -53 -24 -142 -4 -94 -8 -116 -22
-125 -13 -8 -23 -8 -35 0 -16 10 -18 32 -21 189 -3 187 2 209 42 203 11 -2 25
-13 31 -25z m-25259 -427 c-2 -17 -4 -37 -5 -45 -3 -34 -16 5 -17 50 -1 39 2
47 12 38 8 -6 12 -25 10 -43z m51 2 c-3 -7 -5 -2 -5 12 0 14 2 19 5 13 2 -7 2
-19 0 -25z m1707 -49 c19 -22 33 -30 46 -26 26 7 26 -14 1 -37 -23 -21 -57
-14 -66 13 -3 10 -14 26 -25 36 -16 15 -22 15 -35 5 -8 -7 -15 -22 -14 -34 0
-11 3 -15 6 -8 7 18 43 15 50 -4 3 -9 -2 -31 -11 -49 -28 -51 -19 -70 33 -70
32 0 47 -5 61 -23 28 -34 34 -82 16 -133 -10 -29 -15 -36 -16 -21 0 25 -15 30
-23 7 -4 -8 10 -32 33 -57 45 -48 60 -90 60 -163 0 -48 -5 -73 -32 -163 -11
-38 -10 -47 7 -78 l19 -36 -24 -20 c-24 -19 -24 -19 -40 3 -14 18 -20 20 -38
10 -31 -16 -46 -14 -91 16 -46 30 -51 45 -19 67 21 15 21 17 6 32 -13 13 -20
14 -38 4 -17 -9 -25 -9 -34 0 -8 9 -8 14 0 17 43 16 49 30 47 115 0 46 -3 107
-5 135 -3 50 -1 54 27 68 27 13 28 15 7 15 -13 0 -20 4 -17 10 3 5 -4 29 -16
52 l-22 43 22 -19 c11 -11 24 -17 26 -14 3 3 -7 16 -23 29 -15 14 -31 30 -36
37 -10 17 11 42 36 42 11 0 18 5 16 11 -2 6 -7 9 -11 7 -5 -2 -13 5 -18 15 -6
9 -17 17 -24 17 -11 0 -15 12 -15 40 0 31 5 43 25 56 14 9 25 22 25 28 0 23
41 56 70 56 19 0 36 -10 54 -31z m23696 6 c0 -13 -111 -15 -935 -15 -824 0
-935 2 -935 15 0 13 111 15 935 15 824 0 935 -2 935 -15z m-25387 -14 c3 -13
1 -18 -9 -14 -7 2 -10 11 -7 19 7 19 10 18 16 -5z m15 -56 c2 -17 -3 -20 -33
-20 -39 -1 -39 -1 -24 26 13 26 53 22 57 -6z m3821 -16 c-16 -10 -23 -4 -14
10 3 6 11 8 17 5 6 -4 5 -9 -3 -15z m-77 -6 c-6 -2 -10 -8 -7 -13 3 -4 -2 -10
-10 -14 -8 -3 -14 0 -12 7 2 14 18 27 32 26 6 0 4 -3 -3 -6z m165 -25 c-3 -8
-6 -5 -6 6 -1 11 2 17 5 13 3 -3 4 -12 1 -19z m23 -17 c0 -5 -7 -12 -16 -15
-14 -5 -15 -4 -4 9 14 17 20 19 20 6z m-159 -16 c3 2 3 -9 1 -26 -2 -16 -10
-29 -16 -29 -13 0 -57 29 -68 44 -14 20 -8 23 34 16 24 -5 45 -7 49 -5z m119
5 c0 -5 -2 -10 -4 -10 -3 0 -8 5 -11 10 -3 6 -1 10 4 10 6 0 11 -4 11 -10z
m20 -75 c-22 -36 -37 -47 -26 -20 3 8 1 15 -5 15 -6 0 -8 4 -5 9 3 5 -5 12
-18 15 -13 3 -26 13 -30 21 -5 14 -4 14 16 0 28 -19 42 -19 35 0 -5 11 -1 12
18 5 14 -5 24 -6 24 -2 -3 17 4 25 8 9 2 -9 -5 -33 -17 -52z m-44 -21 c-3 -9
-6 -22 -6 -30 0 -8 -7 -14 -15 -14 -8 0 -15 5 -15 10 0 6 5 10 10 10 6 0 9 3
9 8 -3 18 2 32 12 32 6 0 8 -7 5 -16z m-3976 -38 c0 -3 -4 -8 -10 -11 -5 -3
-10 -1 -10 4 0 6 5 11 10 11 6 0 10 -2 10 -4z m4083 -56 c16 -14 23 -30 22
-50 -1 -17 1 -30 5 -30 13 0 6 -35 -9 -47 -11 -8 -12 -12 -3 -13 25 0 11 -28
-23 -44 -33 -16 -50 -34 -22 -23 41 15 57 17 57 8 0 -14 -44 -42 -72 -46 -13
-1 -43 -7 -68 -13 -31 -8 -46 -8 -51 0 -4 7 -9 7 -13 0 -3 -5 0 -12 7 -15 19
-7 126 12 158 29 27 13 29 13 29 -3 0 -27 -74 -56 -142 -57 -32 -1 -58 -4 -58
-8 0 -15 91 -8 145 11 44 16 55 17 55 6 0 -8 -10 -20 -22 -26 -20 -11 -20 -13
-6 -18 24 -8 10 -25 -32 -39 l-35 -11 38 6 c22 3 37 1 37 -5 0 -16 -77 -42
-112 -38 -18 2 -36 -1 -40 -8 -6 -8 -11 -7 -18 4 -6 10 -10 11 -10 3 0 -7 -10
-13 -22 -13 -19 0 -20 2 -8 10 11 7 11 10 2 10 -9 0 -11 10 -7 34 6 28 4 35
-12 39 -16 4 -16 6 5 12 24 8 29 21 10 28 -8 3 -5 6 6 6 12 1 16 6 12 16 -10
27 16 55 51 55 18 0 33 4 33 9 0 5 -19 8 -42 7 -28 -1 -47 4 -55 14 -21 26
-15 31 32 24 32 -4 45 -2 45 6 0 7 -7 10 -16 6 -17 -6 -54 9 -54 23 0 5 14 23
30 41 17 18 30 36 30 40 0 5 14 5 30 0 18 -5 30 -5 30 1 0 5 -9 9 -20 9 -14 0
-18 5 -13 16 3 9 13 14 23 11 23 -6 47 8 31 17 -6 4 -11 2 -11 -4 0 -6 -5 -8
-12 -4 -8 5 -2 12 17 20 40 17 41 17 68 -6z m-164 -6 c-6 -8 -8 -26 -4 -44 6
-28 4 -32 -29 -45 -19 -8 -34 -21 -32 -28 1 -6 1 -9 -1 -4 -3 4 -10 4 -16 0
-7 -3 -3 5 9 18 12 13 24 32 27 42 4 9 11 17 16 17 6 0 8 7 5 15 -4 8 -10 12
-15 9 -5 -3 -7 -10 -4 -15 4 -5 1 -9 -4 -9 -18 0 -12 28 9 43 26 18 54 19 39
1z m-2309 -59 c0 -8 5 -15 10 -15 6 0 9 5 8 12 -2 6 6 13 17 15 15 2 16 1 5
-5 -8 -4 -15 -13 -15 -21 0 -16 -52 -34 -60 -21 -6 10 16 50 27 50 5 0 8 -7 8
-15z"/>
<path d="M5295 15881 c-52 -22 -77 -98 -61 -186 14 -71 98 -85 158 -25 26 27
28 33 28 113 l0 84 -39 11 c-44 14 -58 14 -86 3z"/>
<path d="M2234 15855 c-57 -61 -58 -153 -3 -199 43 -37 83 -34 124 7 58 58 60
155 4 201 -44 37 -84 34 -125 -9z"/>
<path d="M5854 15880 c-12 -4 -31 -20 -42 -35 -21 -27 -39 -91 -29 -101 7 -8
197 95 197 107 0 13 -56 39 -82 38 -13 0 -33 -4 -44 -9z"/>
<path d="M13590 15260 c-220 -47 -428 -164 -582 -328 -409 -435 -402 -1120 16
-1544 416 -423 1076 -451 1527 -65 275 235 425 622 379 977 -25 190 -104 390
-209 530 -172 228 -418 382 -694 435 -110 21 -328 19 -437 -5z m503 -34 c715
-186 1042 -1003 655 -1637 -69 -114 -233 -278 -347 -347 -368 -225 -819 -221
-1173 10 -245 160 -406 394 -480 698 -8 36 -13 115 -12 225 1 150 4 182 27
267 110 412 445 724 864 803 121 23 341 14 466 -19z"/>
<path d="M13700 15229 c-244 -29 -476 -144 -647 -322 -171 -179 -267 -385
-293 -631 -39 -355 113 -717 393 -941 104 -83 272 -168 402 -202 90 -24 117
-27 270 -26 142 0 183 3 248 21 512 140 842 584 814 1096 -29 524 -429 947
-950 1005 -107 12 -129 12 -237 0z m142 -50 c21 -20 28 -33 21 -37 -6 -4 -13
-28 -16 -52 l-4 -45 -1 48 c-2 47 -2 47 -37 47 -19 0 -35 -4 -35 -10 0 -5 9
-10 20 -10 25 0 37 -27 20 -43 -10 -10 -11 -7 -5 12 5 17 4 22 -6 19 -8 -3
-17 -18 -20 -34 -5 -23 -7 -25 -13 -12 -4 9 -13 15 -20 12 -16 -6 -40 22 -31
36 4 6 17 15 29 20 20 8 20 9 -4 9 -42 1 -53 -12 -46 -53 4 -23 3 -36 -4 -36
-5 0 -10 11 -10 24 0 35 -10 56 -26 56 -9 0 -13 -9 -12 -27 2 -16 -1 -28 -7
-28 -5 0 -9 10 -7 23 2 17 -2 22 -19 22 -22 0 -22 -8 -3 -72 3 -10 1 -18 -4
-18 -6 0 -13 18 -17 40 -4 26 -12 40 -22 40 -9 0 -12 -6 -9 -17 15 -53 18 -76
9 -70 -6 4 -14 23 -17 42 -4 19 -11 35 -16 35 -18 0 -20 -20 -5 -56 18 -44 18
-41 3 -41 -7 0 -20 -4 -28 -7 -10 -4 -25 3 -40 20 -25 25 -25 26 -5 41 19 15
19 15 -10 8 -41 -9 -41 -10 -21 -51 9 -20 15 -39 12 -41 -3 -3 -13 11 -22 31
-10 20 -24 36 -31 36 -18 0 -16 -9 8 -49 11 -18 17 -36 13 -40 -4 -3 -9 0 -12
8 -3 10 -10 8 -24 -10 -11 -13 -18 -18 -16 -10 5 17 -40 64 -53 56 -5 -4 -9
-2 -9 4 0 6 18 20 40 31 43 22 53 36 19 25 -15 -5 -19 -4 -15 4 4 6 14 11 22
11 8 0 13 4 9 10 -3 5 -12 7 -20 3 -8 -3 -15 0 -15 6 0 16 31 13 51 -5 16 -15
23 -14 78 7 59 23 78 47 31 41 -14 -2 -20 0 -16 7 10 16 42 13 56 -4 17 -20
30 -19 30 3 0 41 55 56 98 26 17 -12 35 -14 68 -9 25 3 42 11 38 16 -7 13 14
39 32 39 8 0 29 -14 46 -31z m228 -29 c0 -5 -5 -10 -11 -10 -5 0 -7 5 -4 10 3
6 8 10 11 10 2 0 4 -4 4 -10z m72 -44 c105 -36 255 -118 226 -124 -9 -2 -27
-19 -39 -38 -22 -36 -39 -41 -20 -6 16 29 14 35 -9 29 -15 -4 -20 0 -20 14 0
16 3 18 19 9 23 -12 41 -13 41 -2 0 8 -60 46 -64 40 -2 -1 -13 -21 -24 -43
-12 -22 -21 -34 -22 -27 0 7 7 26 15 43 15 28 13 49 -4 49 -4 0 -14 -18 -21
-40 -7 -22 -17 -40 -23 -40 -5 0 -7 7 -3 15 3 8 2 15 -3 15 -4 0 -20 11 -35
25 -27 25 -46 32 -46 17 0 -4 5 -13 12 -20 6 -6 8 -15 4 -19 -4 -4 -11 -1 -16
7 -13 20 -13 60 0 60 6 0 10 7 10 15 0 8 -9 15 -20 15 -15 0 -21 -9 -26 -40
-4 -22 -11 -40 -16 -40 -6 0 -7 8 -4 17 7 17 -9 33 -33 33 -11 0 -9 -5 5 -21
14 -16 15 -21 4 -17 -23 7 -38 57 -20 69 13 8 12 12 -4 24 -19 14 -18 15 10
15 16 0 73 -15 126 -34z m-115 -137 c272 -69 486 -269 578 -538 134 -394 -55
-833 -435 -1009 -130 -60 -203 -76 -355 -75 -111 0 -143 4 -218 27 -156 47
-266 115 -379 234 -134 142 -189 267 -225 512 l-5 35 -12 -30 c-48 -113 -216
-76 -216 47 0 56 51 108 107 108 49 0 100 -31 109 -67 7 -25 8 -25 15 -8 4 11
8 36 8 56 1 49 35 172 66 244 42 94 108 186 189 263 208 198 495 273 773 201z
m528 -109 c4 6 1 18 -7 27 -11 14 -11 15 2 11 10 -3 15 -18 15 -41 0 -20 6
-41 13 -48 6 -7 12 -17 12 -21 0 -5 11 -19 24 -31 32 -29 107 -165 95 -172 -5
-4 -9 -2 -9 3 0 5 -13 9 -30 8 -21 -1 -30 -6 -30 -18 0 -9 -4 -20 -10 -23 -13
-8 -13 7 0 40 8 20 15 25 30 20 23 -7 28 16 7 33 -9 8 -19 5 -37 -8 -14 -11
-29 -20 -34 -20 -5 0 -15 -8 -22 -17 -17 -24 -37 -5 -31 28 4 22 4 22 6 -3 0
-16 5 -28 11 -28 5 0 7 8 3 18 -3 9 -3 14 2 10 4 -4 16 -3 26 3 16 8 17 13 6
30 -10 17 -9 23 12 40 20 16 21 20 7 25 -9 4 -24 0 -34 -8 -27 -23 -46 -33
-38 -19 4 6 2 18 -4 26 -10 12 -9 22 3 47 23 47 10 55 -29 17 -40 -38 -46 -28
-8 12 40 42 19 58 -22 18 -19 -18 -34 -28 -34 -22 0 6 7 16 15 23 8 7 15 17
15 22 0 6 -7 5 -15 -2 -24 -20 -45 -5 -44 32 l1 33 7 -30 c6 -30 27 -38 25 -9
-2 18 5 18 28 -3 31 -28 20 1 -12 32 -51 49 -33 50 24 1 33 -28 57 -42 61 -36z
m-1368 56 c-3 -7 8 -26 24 -42 28 -27 42 -57 16 -36 -8 7 -18 6 -31 -3 -23
-18 -46 -9 -46 18 0 20 -1 20 -17 4 -16 -16 -15 -19 17 -52 40 -41 29 -48 -12
-8 -20 19 -31 24 -39 16 -7 -7 -1 -18 20 -36 37 -31 41 -44 6 -21 -25 17 -45
12 -45 -11 0 -7 12 -16 28 -18 l27 -4 -26 -2 c-15 0 -32 6 -39 14 -10 13 -10
19 5 35 10 11 13 20 7 20 -6 0 -20 -13 -32 -30 -18 -25 -19 -32 -8 -50 9 -15
20 -19 36 -15 12 3 22 1 22 -4 0 -12 -56 -25 -69 -16 -6 3 -8 12 -4 20 8 22
-15 18 -27 -5 -9 -17 -6 -22 25 -37 19 -9 35 -20 35 -25 0 -12 -6 -10 -42 11
-30 19 -48 19 -48 2 0 -5 14 -14 30 -21 36 -15 53 -35 21 -25 -21 6 -26 -1
-22 -32 3 -18 -26 -16 -33 2 -6 17 -36 21 -36 4 0 -5 6 -7 13 -3 10 6 10 4 0
-7 -10 -9 -16 -10 -24 -2 -18 18 0 35 34 31 18 -2 32 2 34 9 7 19 -27 29 -38
12 -7 -12 -9 -11 -9 2 0 18 70 131 103 167 17 18 19 25 8 31 -7 5 -11 17 -9
27 3 14 12 19 35 18 24 -1 40 7 69 37 41 42 49 47 41 25z m1642 -650 c33 -18
51 -54 51 -106 0 -30 -7 -45 -31 -69 -26 -26 -38 -31 -79 -31 -41 0 -53 5 -79
31 -25 24 -31 39 -31 72 1 50 18 85 51 103 32 18 83 17 118 0z m-1829 -455 c0
-11 -80 -44 -88 -37 -3 3 15 15 39 26 52 23 49 22 49 11z m1683 -21 c3 -11 12
-20 21 -20 9 0 16 -4 16 -10 0 -13 -3 -13 -35 2 -14 6 -25 19 -25 30 0 24 16
23 23 -2z m-1684 -32 c12 -19 11 -24 -9 -40 -24 -20 -40 -23 -40 -9 0 5 9 13
20 16 11 3 20 13 20 22 0 9 -6 13 -15 9 -8 -3 -22 -9 -30 -12 -24 -10 -17 12
8 24 30 15 30 15 46 -10z m1689 -14 c18 -12 20 -19 12 -35 -13 -23 -39 -25
-66 -4 -22 17 -3 21 26 5 31 -16 33 6 3 29 -33 24 -10 30 25 5z m-1658 -48 c6
-8 17 -13 23 -10 7 2 18 -5 25 -16 7 -11 8 -20 3 -20 -5 0 -11 5 -13 11 -2 7
-16 4 -38 -9 -36 -23 -60 -16 -60 17 0 36 38 53 60 27z m1630 -25 c7 -14 7
-22 0 -26 -6 -4 -8 -16 -4 -27 7 -22 3 -21 -48 14 -24 16 -26 22 -15 39 15 25
53 25 67 0z m-1621 -50 c-13 -10 -28 -17 -32 -14 -5 3 4 14 19 24 35 23 45 16
13 -10z m1572 -11 c26 -21 19 -26 -13 -9 -31 16 -45 -5 -17 -25 13 -8 20 -18
17 -22 -4 -3 -23 6 -42 21 -38 29 -46 41 -22 32 8 -3 17 1 20 9 8 20 30 18 57
-6z m-1514 -6 c3 -9 -3 -24 -15 -37 -21 -20 -22 -20 -42 -2 -26 23 -9 51 21
34 12 -6 19 -6 19 0 0 5 -6 12 -12 14 -8 3 -6 6 5 6 10 1 20 -6 24 -15z m1452
-40 c26 -22 29 -28 18 -45 -14 -23 -40 -25 -58 -3 -10 12 -10 20 -2 34 9 13 9
20 0 29 -23 23 11 11 42 -15z m-1418 -4 c24 -14 24 -32 -1 -55 -25 -23 -39
-12 -17 13 10 10 17 22 17 25 0 13 -28 7 -40 -8 -7 -9 -15 -13 -18 -10 -5 5
26 45 35 45 2 0 13 -5 24 -10z m79 -47 c0 -10 -52 -63 -62 -63 -5 0 4 16 19
35 26 33 43 44 43 28z m1292 -10 c10 -9 18 -22 18 -29 0 -20 -33 -34 -53 -23
-20 11 -23 55 -4 62 19 8 19 8 39 -10z m-64 -43 c26 -35 27 -43 7 -60 -12 -10
-19 -10 -27 -2 -9 9 -8 12 5 12 23 0 21 23 -3 45 -11 10 -20 22 -20 27 0 17
17 7 38 -22z m-1198 -14 c0 -16 -39 -66 -40 -51 0 6 7 20 15 32 21 30 -2 44
-25 15 -10 -12 -20 -18 -24 -15 -3 4 3 17 15 29 17 18 26 21 40 13 11 -5 19
-16 19 -23z m49 -29 c6 -8 8 -17 4 -20 -3 -4 -12 1 -19 11 -8 9 -14 12 -14 5
0 -6 5 -15 10 -18 6 -3 10 -13 10 -21 0 -23 -44 -13 -48 11 l-4 20 16 -20 c15
-19 15 -19 10 13 -5 24 -3 32 9 32 8 0 20 -6 26 -13z m1086 -58 c4 -23 3 -39
-4 -43 -6 -4 -11 0 -11 9 0 10 -11 26 -26 37 -14 11 -23 23 -20 26 3 3 15 -3
26 -13 20 -18 20 -18 14 16 -7 47 12 16 21 -32z m-1037 39 c-2 -6 -11 -20 -21
-30 -10 -10 -15 -23 -12 -28 4 -6 2 -10 -4 -10 -19 0 -19 16 1 48 20 31 40 43
36 20z m11 -50 c-12 -23 -24 -37 -27 -30 -4 12 39 85 46 77 2 -2 -7 -23 -19
-47z m51 12 c0 -11 -4 -20 -10 -20 -5 0 -13 -12 -16 -26 -4 -15 -10 -22 -15
-17 -11 11 16 83 31 83 6 0 10 -9 10 -20z m920 -20 c16 -38 7 -60 -22 -59
l-23 0 23 9 c12 5 22 14 22 20 0 6 -7 6 -19 -2 -15 -9 -23 -9 -35 1 -23 19
-20 50 7 60 28 11 31 8 47 -29z m-906 -30 c-8 -35 10 -41 26 -9 16 28 23 18
11 -15 -12 -30 -19 -32 -46 -12 -17 12 -18 18 -7 40 16 35 23 33 16 -4z m775
-52 c1 -5 -3 -8 -7 -8 -9 0 -32 60 -31 81 0 13 37 -56 38 -73z m55 61 c8 -12
12 -27 9 -34 -7 -20 -34 -27 -49 -14 -17 14 -18 56 -1 62 21 9 25 8 41 -14z
m-744 -8 c0 -11 -4 -23 -10 -26 -5 -3 -10 -15 -10 -26 0 -10 -4 -19 -10 -19
-13 0 -13 19 1 59 12 35 29 42 29 12z m60 -43 c0 -17 -5 -19 -26 -14 -17 5
-23 3 -19 -4 3 -5 13 -10 21 -10 8 0 14 -4 14 -10 0 -11 -11 -13 -34 -4 -21 8
-20 51 1 62 23 13 43 4 43 -20z m590 11 c16 -28 5 -49 -24 -49 -29 0 -44 33
-26 55 17 21 37 18 50 -6z m-443 -19 c1 -11 -2 -20 -8 -20 -5 0 -9 -11 -9 -25
0 -14 -5 -25 -10 -25 -6 0 -9 16 -6 38 3 20 5 40 5 45 2 17 27 5 28 -13z m112
4 c2 -2 -3 -4 -11 -4 -10 0 -19 -16 -25 -42 l-11 -43 -1 43 c-1 31 -5 42 -17
42 -8 0 -12 4 -9 10 5 8 63 3 74 -6z m141 7 c0 -5 10 -11 23 -13 17 -2 22 -10
24 -33 l2 -30 -12 28 c-14 34 -33 30 -29 -7 1 -14 -2 -26 -8 -26 -5 0 -10 6
-10 14 0 7 -3 28 -6 45 -4 20 -3 31 5 31 6 0 11 -4 11 -9z m113 2 c11 -20 16
-63 8 -63 -5 0 -11 10 -13 22 -5 36 -28 34 -28 -4 0 -25 -3 -29 -10 -18 -14
21 -12 57 3 63 19 8 35 8 40 0z m-418 -38 c0 -23 -5 -31 -21 -33 -30 -4 -48
21 -34 48 18 33 55 23 55 -15z m206 -1 c11 -14 13 -14 21 0 9 17 48 22 48 7 0
-5 -8 -8 -17 -7 -10 0 -19 -7 -21 -18 -3 -16 0 -18 22 -12 31 8 35 -10 4 -20
-14 -4 -25 -1 -33 10 -13 17 -71 23 -60 6 4 -6 16 -8 27 -4 14 4 18 2 14 -5
-12 -19 -54 -13 -61 9 -13 40 30 65 56 34z"/>
<path d="M13780 15175 c0 -10 10 -15 31 -15 27 0 30 2 19 15 -7 8 -21 15 -31
15 -11 0 -19 -7 -19 -15z"/>
<path d="M13593 15163 c-7 -2 -13 -11 -13 -19 0 -10 7 -13 28 -8 53 11 59 15
37 24 -23 10 -35 10 -52 3z"/>
<path d="M13743 15113 c-18 -7 -16 -23 2 -23 8 0 15 7 15 15 0 8 -1 15 -2 14
-2 0 -9 -3 -15 -6z"/>
<path d="M13480 15069 c0 -7 -8 -18 -17 -26 -17 -13 -16 -14 5 -9 18 3 22 1
18 -10 -3 -8 1 -14 9 -14 15 0 20 26 9 54 -7 18 -24 22 -24 5z"/>
<path d="M13335 15010 c-10 -16 16 -43 28 -31 11 11 2 41 -12 41 -5 0 -13 -5
-16 -10z"/>
<path d="M14037 15114 c-14 -14 -7 -35 11 -32 9 2 17 10 17 17 0 16 -18 25
-28 15z"/>
<path d="M14135 15080 c-4 -7 -3 -16 2 -21 10 -10 53 0 53 13 0 5 -5 6 -10 3
-6 -4 -17 -2 -25 5 -10 8 -15 8 -20 0z"/>
<path d="M14188 15046 c-23 -17 -23 -26 2 -26 11 0 20 2 20 4 0 2 3 11 6 20 7
19 -5 20 -28 2z"/>
<path d="M13635 14950 c-245 -64 -424 -207 -533 -425 -62 -124 -77 -195 -77
-360 1 -143 2 -154 33 -245 18 -52 50 -124 72 -160 79 -134 223 -263 365 -326
73 -32 206 -64 266 -64 44 0 46 1 41 25 -3 20 0 25 16 25 27 0 37 -17 22 -35
-29 -35 164 -8 280 38 185 75 345 228 431 410 95 204 95 470 -1 676 -80 171
-234 321 -408 398 -143 63 -361 82 -507 43z m211 -1 c3 -6 0 -18 -9 -26 -18
-18 -37 -9 -37 18 0 21 34 27 46 8z m199 -83 c245 -83 427 -279 489 -527 9
-36 16 -80 16 -97 0 -18 6 -41 12 -52 10 -16 10 -24 0 -40 -6 -11 -12 -35 -12
-53 0 -59 -38 -185 -82 -270 -59 -115 -190 -246 -305 -305 -221 -114 -471
-114 -685 0 -201 107 -348 315 -379 536 -6 42 -16 87 -22 99 -7 15 -7 26 0 35
6 7 13 38 17 68 23 184 133 375 278 485 81 62 204 120 293 139 109 24 279 16
380 -18z"/>
<path d="M13685 14873 c-229 -51 -413 -195 -510 -398 -40 -83 -68 -195 -63
-250 3 -35 6 -40 31 -43 l27 -3 0 70 0 71 64 0 c36 0 68 5 71 10 10 16 32 12
39 -7 9 -23 -20 -51 -36 -35 -7 7 -36 12 -65 12 l-53 0 0 -60 c0 -53 2 -60 20
-60 23 0 28 38 9 57 -17 17 -3 43 21 43 24 0 38 -26 21 -43 -17 -17 -13 -47 7
-47 9 0 34 5 55 11 l38 10 -3 82 c-3 78 -4 82 -27 85 -13 2 -34 -2 -47 -8 -27
-15 -54 -7 -54 15 0 21 29 31 51 17 10 -7 34 -12 53 -12 19 0 38 -4 41 -10 10
-16 75 -12 81 5 8 19 -19 45 -45 45 -16 0 -21 6 -21 25 0 23 -4 25 -40 25 -28
0 -43 5 -47 16 -10 26 8 33 90 35 l77 2 0 81 c0 48 -5 87 -11 93 -7 7 -9 19
-6 27 7 18 42 22 52 6 3 -5 19 -10 36 -10 26 0 29 3 29 30 l0 30 65 0 c73 0
70 4 78 -100 12 -149 -41 -301 -131 -380 -60 -53 -145 -97 -236 -120 -74 -19
-73 -21 9 -40 28 -6 78 -25 111 -41 193 -91 276 -276 238 -526 l-5 -33 -64 0
-65 0 0 30 c0 27 -3 30 -29 30 -17 0 -33 -4 -36 -10 -10 -16 -45 -12 -52 6 -3
8 -1 20 6 27 6 6 11 45 11 93 0 81 0 82 -27 87 -15 3 -51 4 -81 2 -39 -3 -55
0 -59 11 -10 25 15 43 53 37 31 -5 34 -4 34 21 0 20 5 26 21 26 24 0 49 22 49
44 0 12 -11 16 -45 16 -25 0 -45 -4 -45 -10 0 -5 -16 -10 -35 -10 -19 0 -44
-5 -54 -12 -22 -14 -51 -4 -51 17 0 22 27 30 54 15 13 -6 34 -10 47 -8 23 3
24 7 27 82 2 44 -1 83 -5 87 -4 4 -29 10 -55 14 -43 7 -48 5 -48 -12 0 -10 5
-24 12 -31 9 -9 8 -16 -5 -29 -16 -16 -18 -16 -34 0 -15 14 -15 21 -5 37 18
29 15 50 -8 50 -18 0 -20 -7 -20 -60 l0 -60 53 0 c29 0 58 5 65 12 10 10 16 8
29 -5 16 -16 16 -18 0 -34 -13 -13 -19 -15 -29 -5 -7 7 -39 12 -75 12 l-63 0
0 71 0 70 -27 -3 c-25 -3 -28 -8 -31 -42 -5 -59 25 -175 67 -263 158 -327 535
-480 884 -358 103 35 173 81 262 170 89 89 135 159 170 262 27 76 50 207 40
223 -3 5 -19 10 -34 10 -27 0 -28 -3 -34 -56 -4 -35 -17 -75 -36 -109 -17 -30
-31 -68 -31 -85 0 -19 -7 -34 -21 -42 -11 -7 -29 -28 -40 -46 -12 -17 -32 -35
-45 -38 -13 -3 -30 -18 -37 -33 -10 -20 -20 -26 -44 -26 -26 0 -30 -3 -22 -17
16 -30 9 -52 -29 -94 -39 -44 -97 -64 -181 -64 -49 0 -51 6 -51 130 0 249 125
406 373 470 40 10 65 20 57 23 -8 3 -43 12 -78 21 -145 38 -269 132 -318 241
-33 76 -46 175 -34 267 5 40 10 77 10 82 0 9 65 3 139 -12 32 -7 55 -22 87
-56 l44 -46 -14 -35 -15 -35 30 0 c22 0 39 -9 62 -35 17 -19 37 -35 44 -35 8
0 20 -15 28 -32 7 -18 25 -44 40 -56 21 -18 26 -30 22 -51 -4 -19 1 -32 17
-49 24 -22 46 -89 46 -136 0 -21 5 -26 24 -26 39 0 46 19 36 90 -25 173 -125
350 -258 455 -72 58 -197 120 -282 139 -61 15 -255 20 -305 9z m155 -273 c12
-164 27 -267 42 -276 5 -4 23 3 39 15 l29 21 -12 -25 c-14 -32 -5 -41 27 -27
l25 12 -16 -31 -16 -31 37 4 38 4 -29 -23 c-42 -33 -22 -44 98 -55 57 -5 110
-12 118 -15 8 -4 -38 -12 -104 -19 -136 -14 -155 -24 -111 -59 l30 -25 -38 7
c-42 6 -44 3 -20 -34 17 -26 17 -26 -4 -14 -35 18 -46 14 -39 -14 6 -25 6 -26
-18 -10 -14 9 -29 14 -35 11 -19 -12 -50 -282 -52 -456 -1 -99 -17 -64 -18 40
-2 166 -32 403 -52 416 -6 3 -21 -4 -35 -17 l-24 -23 6 32 c5 25 3 32 -9 32
-9 0 -19 -4 -22 -10 -3 -5 -11 -10 -16 -10 -6 0 -3 10 5 22 24 34 20 41 -21
35 -36 -6 -37 -5 -18 9 11 9 27 19 35 24 31 18 -9 31 -128 42 -67 7 -119 14
-116 17 3 3 57 11 121 18 63 6 119 15 125 21 6 6 0 17 -18 31 l-27 21 32 0
c35 0 38 6 15 39 -16 22 -16 23 4 12 35 -19 45 -14 39 19 l-6 29 20 -20 c28
-28 42 -20 55 32 13 51 34 273 34 358 0 32 3 74 8 92 6 31 7 29 9 -21 2 -30 7
-120 13 -200z"/>
<path d="M13784 14260 c-32 -13 -64 -59 -64 -92 0 -39 57 -98 95 -98 114 0
145 150 38 191 -29 11 -41 11 -69 -1z m-1 -25 c-13 -9 -27 -23 -32 -33 -6 -10
-11 -12 -11 -4 0 15 36 52 52 52 7 0 3 -7 -9 -15z m95 -1 c12 -8 22 -20 22
-26 0 -7 -6 -5 -12 4 -7 8 -22 20 -33 26 -11 6 -15 12 -10 12 6 0 21 -7 33
-16z m15 -112 c-11 -14 -25 -28 -32 -30 -7 -2 -1 7 13 22 14 14 27 38 27 53 2
26 2 26 6 4 3 -14 -3 -34 -14 -49z m-109 -31 c-2 -3 -12 3 -22 13 -16 17 -16
18 5 5 12 -7 20 -15 17 -18z m49 -8 c-7 -2 -19 -2 -25 0 -7 3 -2 5 12 5 14 0
19 -2 13 -5z"/>
<path d="M13590 14745 c0 -19 -5 -25 -21 -25 -11 0 -17 -4 -14 -10 3 -5 35
-10 71 -10 l64 0 0 35 0 35 -50 0 c-47 0 -50 -2 -50 -25z"/>
<path d="M13957 14763 c-13 -13 -7 -21 13 -16 10 3 42 0 71 -7 41 -10 55 -19
71 -47 22 -36 52 -58 68 -48 18 11 11 28 -27 64 -47 44 -172 79 -196 54z"/>
<path d="M13476 14731 c-4 -7 -5 -15 -2 -18 9 -9 19 4 14 18 -4 11 -6 11 -12
0z"/>
<path d="M13950 14704 c-15 -39 -12 -127 6 -152 28 -40 100 -26 181 34 l32 24
-49 50 c-52 53 -83 70 -131 70 -22 0 -32 -6 -39 -26z m144 -47 c38 -27 -2 -95
-41 -71 -25 16 -29 55 -7 71 10 7 21 13 24 13 3 0 14 -6 24 -13z m-79 -87 c0
-8 -8 -16 -17 -18 -13 -2 -18 3 -18 18 0 15 5 20 18 18 9 -2 17 -10 17 -18z"/>
<path d="M14050 14635 c-15 -18 -5 -35 20 -35 10 0 22 5 25 10 7 11 -12 40
-25 40 -4 0 -13 -7 -20 -15z"/>
<path d="M13502 14708 c-7 -7 -12 -43 -12 -93 l0 -82 30 5 c24 3 32 0 39 -19
9 -22 10 -20 10 13 l1 37 63 3 62 3 0 53 c0 50 -17 74 -23 32 -2 -12 -11 -20
-23 -20 -11 0 -28 -5 -38 -12 -22 -14 -51 -4 -51 17 0 23 27 30 56 15 18 -10
27 -11 35 -3 31 31 -59 47 -92 17 -26 -23 -53 -11 -47 21 6 29 6 29 -10 13z"/>
<path d="M13525 14690 c-3 -5 1 -10 9 -10 9 0 16 5 16 10 0 6 -4 10 -9 10 -6
0 -13 -4 -16 -10z"/>
<path d="M13580 14645 c0 -8 5 -15 10 -15 6 0 10 7 10 15 0 8 -4 15 -10 15 -5
0 -10 -7 -10 -15z"/>
<path d="M14236 14558 c10 -13 45 -48 77 -78 47 -45 57 -61 57 -88 0 -20 4
-31 10 -27 19 12 10 52 -20 80 -16 16 -30 35 -30 42 0 8 -13 22 -29 31 -17 9
-35 27 -40 39 -6 13 -18 23 -27 23 -15 0 -15 -2 2 -22z"/>
<path d="M14090 14538 c-43 -23 -64 -29 -97 -25 l-41 4 14 -41 c35 -100 113
-179 230 -233 49 -22 154 -56 154 -49 0 2 -21 17 -47 34 -27 18 -66 45 -88 62
-28 22 -46 29 -63 25 -24 -6 -92 28 -92 46 0 5 20 9 45 9 33 0 50 -6 65 -22
23 -25 25 -20 8 17 -6 14 -17 25 -25 25 -8 0 -28 8 -46 17 -18 10 -43 18 -57
20 -32 3 -92 66 -68 71 9 2 35 -2 57 -8 30 -8 42 -17 47 -35 6 -23 58 -54 71
-41 3 3 -2 21 -12 41 -19 33 -19 35 -1 72 l19 38 13 -30 c16 -37 17 -60 3 -83
-8 -13 -7 -26 5 -52 13 -29 15 -31 11 -8 -3 17 1 33 12 43 19 19 63 38 71 30
11 -10 -29 -77 -49 -82 -16 -5 -19 -11 -14 -31 8 -31 43 -82 56 -82 12 0 11
27 -2 52 -9 17 -8 28 6 55 10 18 21 33 26 33 22 0 26 -95 5 -107 -27 -15 6
-67 58 -93 26 -12 49 -20 52 -18 2 3 0 17 -6 32 -5 15 -10 36 -10 47 0 11 -9
32 -19 47 -11 15 -22 44 -26 66 -5 31 -21 53 -83 112 -88 85 -99 88 -182 42z"/>
<path d="M13590 14515 c0 -24 -5 -35 -15 -35 -10 0 -15 -11 -15 -35 0 -29 -4
-35 -21 -35 -11 0 -17 -4 -14 -10 3 -5 28 -10 54 -10 40 0 51 4 63 23 14 21
48 112 48 129 0 4 -22 8 -50 8 l-50 0 0 -35z"/>
<path d="M13457 14483 c-8 -47 -3 -53 44 -53 l39 0 0 45 0 45 -39 0 c-36 0
-39 -2 -44 -37z m38 -23 c3 -6 -1 -13 -10 -16 -19 -8 -30 0 -20 15 8 14 22 14
30 1z"/>
<path d="M14157 14513 c-11 -10 -8 -43 3 -43 6 0 10 11 10 25 0 26 -2 29 -13
18z"/>
<path d="M13320 14500 c0 -5 5 -10 10 -10 6 0 10 5 10 10 0 6 -4 10 -10 10 -5
0 -10 -4 -10 -10z"/>
<path d="M13380 14501 c15 -4 26 -15 28 -29 5 -34 32 -27 32 8 0 29 -2 30 -42
29 -35 -1 -38 -2 -18 -8z"/>
<path d="M14019 14460 c25 -22 51 -26 51 -10 0 11 -42 30 -63 30 -7 -1 -1 -10
12 -20z"/>
<path d="M14232 14434 c-24 -17 -29 -34 -9 -34 12 0 42 39 35 46 -2 2 -14 -3
-26 -12z"/>
<path d="M13470 14386 c0 -23 -5 -25 -47 -28 l-48 -3 -3 -67 c-3 -78 -1 -80
70 -49 30 13 44 25 45 39 1 12 -2 24 -8 27 -12 8 -12 42 0 49 29 18 54 -27 30
-51 -6 -6 -9 -17 -7 -23 4 -13 73 39 102 78 l17 22 -56 0 c-42 0 -55 3 -55 15
0 8 -9 15 -20 15 -15 0 -20 -7 -20 -24z"/>
<path d="M13250 14384 c0 -8 5 -12 10 -9 6 3 10 10 10 16 0 5 -4 9 -10 9 -5 0
-10 -7 -10 -16z"/>
<path d="M14285 14359 c-4 -12 -2 -26 4 -32 8 -8 11 -2 11 21 0 37 -6 41 -15
11z"/>
<path d="M14100 14351 c0 -12 39 -25 48 -16 7 7 -17 25 -35 25 -7 0 -13 -4
-13 -9z"/>
<path d="M14380 14342 c0 -5 9 -17 20 -27 11 -10 20 -29 20 -43 0 -29 21 -92
30 -92 9 0 -8 108 -21 131 -11 21 -49 45 -49 31z"/>
<path d="M13480 14330 c0 -5 5 -10 10 -10 6 0 10 5 10 10 0 6 -4 10 -10 10 -5
0 -10 -4 -10 -10z"/>
<path d="M13310 14310 c0 -5 5 -10 10 -10 6 0 10 5 10 10 0 6 -4 10 -10 10 -5
0 -10 -4 -10 -10z"/>
<path d="M13230 14250 c0 -5 5 -10 10 -10 6 0 10 5 10 10 0 6 -4 10 -10 10 -5
0 -10 -4 -10 -10z"/>
<path d="M14436 14112 c-3 -27 -19 -66 -36 -92 -16 -25 -30 -55 -30 -68 0 -36
-17 -61 -98 -139 -54 -53 -69 -73 -55 -73 11 0 25 11 31 25 6 14 17 25 23 25
6 0 35 25 65 57 41 42 54 63 54 86 0 17 6 38 14 46 28 33 63 165 47 175 -5 3
-11 -16 -15 -42z"/>
<path d="M14375 14131 c-62 -28 -97 -79 -69 -101 15 -13 18 -62 5 -95 -7 -18
-10 -17 -30 15 -13 21 -19 43 -15 55 3 11 8 31 11 45 l6 25 -23 -20 c-23 -21
-50 -66 -50 -85 0 -5 7 -10 15 -10 20 0 35 -32 35 -77 l-1 -38 -35 38 c-27 29
-33 43 -28 60 4 14 3 19 -4 12 -15 -15 -23 -63 -12 -70 13 -8 13 -46 0 -80 -8
-22 -13 -25 -25 -15 -23 19 -29 69 -11 89 15 17 22 51 11 51 -19 0 -63 -32
-68 -49 -5 -20 -38 -45 -74 -56 -18 -5 -23 -2 -23 13 0 40 55 77 148 99 12 3
29 18 38 34 17 34 12 37 -16 9 -21 -21 -65 -26 -88 -11 -24 15 37 54 74 48 26
-4 41 2 90 42 33 26 73 55 89 64 46 25 3 21 -75 -6 -124 -44 -207 -115 -260
-219 -42 -86 -41 -93 23 -94 32 0 68 -9 94 -22 54 -28 89 -28 111 0 9 13 41
45 70 73 41 39 55 61 63 95 6 25 21 62 35 82 21 30 46 119 33 118 -2 0 -22 -9
-44 -19z"/>
<path d="M13372 14053 l3 -68 48 -3 c42 -3 47 -5 47 -28 0 -17 5 -24 20 -24
11 0 20 7 20 15 0 12 13 15 55 15 l55 0 -16 25 c-18 28 -95 88 -102 80 -3 -3
0 -16 8 -29 15 -29 8 -56 -15 -56 -21 0 -31 29 -17 51 21 33 13 49 -30 69 -74
34 -79 30 -76 -47z"/>
<path d="M13230 14090 c0 -5 5 -10 10 -10 6 0 10 5 10 10 0 6 -4 10 -10 10 -5
0 -10 -4 -10 -10z"/>
<path d="M13310 14030 c0 -5 5 -10 10 -10 6 0 10 5 10 10 0 6 -4 10 -10 10 -5
0 -10 -4 -10 -10z"/>
<path d="M13480 14010 c0 -5 5 -10 10 -10 6 0 10 5 10 10 0 6 -4 10 -10 10 -5
0 -10 -4 -10 -10z"/>
<path d="M14284 14006 c-3 -8 -1 -23 5 -33 9 -15 10 -13 11 15 0 34 -7 42 -16
18z"/>
<path d="M14100 13990 c-12 -8 -9 -10 12 -10 15 0 30 5 33 10 8 13 -25 13 -45
0z"/>
<path d="M13250 13954 c0 -8 5 -12 10 -9 6 3 10 10 10 16 0 5 -4 9 -10 9 -5 0
-10 -7 -10 -16z"/>
<path d="M13520 13940 c0 -5 9 -10 20 -10 16 0 20 -7 20 -35 0 -24 5 -35 15
-35 10 0 15 -11 15 -35 l0 -35 51 0 51 0 -7 33 c-4 17 -17 52 -29 77 -21 45
-21 45 -78 48 -36 2 -58 -1 -58 -8z"/>
<path d="M14210 13926 c0 -14 27 -42 34 -35 2 2 0 14 -5 27 -9 24 -29 30 -29
8z"/>
<path d="M13454 13868 c4 -42 4 -43 45 -46 l41 -3 0 45 0 46 -45 0 -45 0 4
-42z m37 17 c-1 -15 -24 -12 -29 3 -3 9 2 13 12 10 10 -1 17 -7 17 -13z"/>
<path d="M13408 13868 c-2 -14 -13 -25 -28 -29 -20 -6 -17 -7 18 -8 40 -1 42
0 42 29 0 35 -27 42 -32 8z"/>
<path d="M14025 13870 c-11 -13 -14 -20 -6 -20 18 0 51 19 51 30 0 17 -26 11
-45 -10z"/>
<path d="M14150 13845 c0 -14 5 -25 10 -25 6 0 10 11 10 25 0 14 -4 25 -10 25
-5 0 -10 -11 -10 -25z"/>
<path d="M13320 13840 c0 -5 5 -10 10 -10 6 0 10 5 10 10 0 6 -4 10 -10 10 -5
0 -10 -4 -10 -10z"/>
<path d="M13562 13828 c-2 -14 -11 -18 -37 -18 l-35 0 0 -84 c0 -58 4 -87 14
-95 11 -9 12 -6 8 14 -6 31 21 44 47 21 23 -21 95 -16 99 7 4 20 -20 22 -47 5
-22 -14 -51 -4 -51 17 0 21 29 31 51 17 10 -7 27 -12 38 -12 12 0 21 -8 23
-20 6 -42 23 -18 23 33 l0 52 -62 3 -62 3 -4 37 c-2 20 -4 29 -5 20z"/>
<path d="M13961 13776 c-7 -8 -15 -39 -18 -69 -5 -48 -3 -56 18 -76 35 -33
103 -24 138 17 14 16 34 32 44 36 12 4 17 14 15 28 -7 50 -167 101 -197 64z
m42 -13 c9 -9 -13 -34 -24 -27 -14 8 -11 34 4 34 8 0 17 -3 20 -7z m91 -16
c38 -27 -2 -95 -41 -71 -25 16 -29 55 -7 71 10 7 21 13 24 13 3 0 14 -6 24
-13z"/>
<path d="M14046 13724 c-8 -21 1 -34 24 -34 22 0 33 23 17 39 -16 16 -34 14
-41 -5z"/>
<path d="M13580 13695 c0 -8 5 -15 10 -15 6 0 10 7 10 15 0 8 -4 15 -10 15 -5
0 -10 -7 -10 -15z"/>
<path d="M14161 13677 c-7 -10 -19 -17 -25 -17 -6 0 -17 -9 -23 -20 -28 -43
-91 -59 -145 -35 -14 5 -18 2 -18 -13 0 -30 9 -32 86 -20 60 10 74 17 107 50
21 22 37 46 35 55 -3 15 -4 14 -17 0z"/>
<path d="M13525 13650 c4 -6 11 -8 16 -5 14 9 11 15 -7 15 -8 0 -12 -5 -9 -10z"/>
<path d="M13555 13630 c-3 -5 3 -10 14 -10 16 0 21 -6 21 -25 0 -23 3 -25 50
-25 l50 0 0 35 0 35 -64 0 c-36 0 -68 -4 -71 -10z"/>
<path d="M13470 13620 c0 -5 5 -10 10 -10 6 0 10 5 10 10 0 6 -4 10 -10 10 -5
0 -10 -4 -10 -10z"/>
<path d="M12833 14256 c-38 -17 -53 -43 -53 -89 0 -96 132 -131 175 -46 22 42
18 75 -12 108 -34 37 -68 45 -110 27z m26 -35 c9 -6 21 -5 33 2 16 10 21 9 31
-8 14 -23 26 -82 19 -90 -10 -9 -62 -5 -62 5 0 6 -5 10 -11 10 -5 0 -7 -4 -4
-10 4 -6 -9 -10 -31 -10 l-37 0 6 40 c5 38 21 70 36 70 3 0 12 -4 20 -9z"/>
<path d="M12893 14213 c-19 -7 -16 -53 2 -53 10 0 15 10 15 30 0 17 -1 30 -2
29 -2 0 -9 -3 -15 -6z"/>
<path d="M12830 14186 c0 -13 7 -26 15 -30 11 -4 15 2 15 24 0 20 -5 30 -15
30 -9 0 -15 -9 -15 -24z"/>
<path d="M14560 14781 c0 -6 6 -13 12 -17 9 -6 5 -10 -11 -14 -19 -4 -21 -7
-10 -17 11 -9 18 -8 32 2 16 11 16 16 5 34 -13 22 -28 28 -28 12z"/>
<path d="M14614 14686 c-18 -14 -18 -15 -1 -22 22 -8 46 11 31 26 -7 7 -17 5
-30 -4z"/>
<path d="M13166 14868 c9 -31 12 -34 26 -20 8 8 8 15 -2 27 -19 22 -32 18 -24
-7z"/>
<path d="M13055 14841 c-7 -12 12 -24 25 -16 11 7 4 25 -10 25 -5 0 -11 -4
-15 -9z"/>
<path d="M14735 14261 c-64 -27 -81 -110 -32 -158 20 -21 37 -28 67 -28 116 0
130 170 15 190 -16 2 -39 1 -50 -4z m83 -41 c3 -8 11 -22 19 -31 12 -14 12
-19 0 -31 -8 -8 -16 -23 -18 -33 -3 -15 -13 -19 -47 -20 -38 -1 -44 2 -57 28
-17 35 -19 57 -5 57 6 0 10 9 10 19 0 23 7 26 57 26 23 0 38 -6 41 -15z"/>
<path d="M14735 14219 c-10 -15 3 -25 16 -12 7 7 7 13 1 17 -6 3 -14 1 -17 -5z"/>
<path d="M14786 14222 c-3 -6 -1 -14 5 -17 15 -10 25 3 12 16 -7 7 -13 7 -17
1z"/>
<path d="M14750 14185 c-10 -12 -10 -18 0 -30 7 -8 19 -15 27 -15 8 0 12 -4 8
-9 -3 -5 -1 -12 4 -15 5 -4 13 -1 17 5 3 6 1 15 -6 19 -7 4 -9 13 -5 19 7 12
-11 41 -25 41 -4 0 -13 -7 -20 -15z m32 -20 c0 -5 -5 -11 -11 -13 -6 -2 -11 4
-11 13 0 9 5 15 11 13 6 -2 11 -8 11 -13z"/>
<path d="M14710 14165 c0 -8 5 -15 10 -15 6 0 10 7 10 15 0 8 -4 15 -10 15 -5
0 -10 -7 -10 -15z"/>
<path d="M14810 14170 c0 -5 5 -10 10 -10 6 0 10 5 10 10 0 6 -4 10 -10 10 -5
0 -10 -4 -10 -10z"/>
<path d="M14732 14131 c4 -13 18 -16 19 -4 0 4 -5 9 -11 12 -7 2 -11 -2 -8 -8z"/>
<path d="M12987 13683 c-13 -12 -7 -23 13 -23 11 0 20 7 20 15 0 15 -21 21
-33 8z"/>
<path d="M14610 13666 c0 -18 17 -29 30 -21 8 5 7 11 -1 21 -15 18 -29 18 -29
0z"/>
<path d="M13045 13580 c3 -5 11 -10 16 -10 6 0 7 5 4 10 -3 6 -11 10 -16 10
-6 0 -7 -4 -4 -10z"/>
<path d="M14516 13541 c-7 -10 22 -37 30 -28 9 8 -3 37 -15 37 -5 0 -12 -4
-15 -9z"/>
<path d="M14462 13484 c2 -11 11 -20 22 -22 13 -3 17 1 14 14 -2 11 -11 20
-22 22 -13 3 -17 -1 -14 -14z"/>
<path d="M14276 13353 c-12 -12 -6 -33 9 -33 8 0 15 6 15 14 0 17 -14 28 -24
19z"/>
<path d="M14208 13314 c-11 -10 3 -34 19 -34 8 0 13 7 11 17 -3 18 -20 27 -30
17z"/>
<path d="M13520 13276 c0 -2 7 -6 15 -10 8 -3 15 -1 15 4 0 6 -7 10 -15 10 -8
0 -15 -2 -15 -4z"/>
<path d="M14114 13276 c-6 -17 2 -36 17 -36 12 0 12 37 -1 45 -6 3 -13 -1 -16
-9z"/>
<path d="M13610 13236 c0 -21 21 -31 30 -15 5 7 6 17 4 21 -9 14 -34 9 -34 -6z"/>
<path d="M13825 13230 c-3 -5 1 -10 10 -10 9 0 13 5 10 10 -3 6 -8 10 -10 10
-2 0 -7 -4 -10 -10z"/>
<path d="M13212 13133 c-12 -10 -44 -68 -71 -129 -70 -159 -69 -150 -18 -146
25 2 107 -10 188 -28 205 -45 331 -60 514 -60 184 0 311 15 513 60 84 19 161
31 187 28 35 -2 44 0 40 10 -47 123 -112 256 -131 269 -28 18 -50 14 -150 -27
-40 -16 -118 -42 -175 -57 -95 -25 -120 -27 -284 -28 -202 0 -280 14 -446 80
-116 47 -140 51 -167 28z m64 -148 c-4 -14 -11 -25 -16 -25 -5 0 -5 13 2 31
12 35 23 31 14 -6z m1081 5 c6 -16 8 -30 3 -30 -4 0 -13 14 -19 30 -5 17 -7
30 -3 30 4 0 13 -13 19 -30z m-1043 -14 c-3 -14 -10 -26 -15 -26 -4 0 -3 14 3
31 12 36 22 33 12 -5z m906 25 c0 -5 -6 -12 -12 -14 -7 -3 -3 -6 10 -6 13 -1
20 -5 17 -11 -3 -5 -1 -10 4 -10 14 0 14 13 -1 28 -7 7 -8 12 -2 12 11 0 42
-20 32 -20 -4 0 -3 -11 2 -24 7 -18 5 -26 -6 -30 -22 -8 -44 4 -44 26 0 10 -5
16 -10 13 -6 -3 -7 -17 -4 -31 9 -37 -3 -29 -16 11 -9 28 -9 39 0 50 14 17 30
20 30 6z m104 -41 c7 -24 6 -24 -8 -6 -9 11 -16 29 -16 40 1 17 2 18 9 6 5 -8
12 -26 15 -40z m-914 30 c13 21 20 -18 8 -50 l-10 -31 -25 28 c-16 17 -23 21
-20 11 4 -10 2 -18 -3 -18 -6 0 -10 9 -10 20 0 14 7 20 23 21 l22 2 -22 4
c-13 2 -23 8 -23 13 0 6 12 5 27 -1 19 -7 28 -6 33 1z m700 -18 c0 -5 -7 -9
-15 -9 -8 0 -15 4 -15 9 0 4 7 8 15 8 8 0 15 -4 15 -8z m-534 -27 c47 -9 100
-15 119 -14 43 4 45 1 35 -41 l-8 -35 -2 35 -2 35 -9 -33 c-10 -32 -10 -32
-30 -13 -12 11 -18 24 -14 30 3 6 1 11 -4 11 -6 0 -11 -11 -11 -25 0 -14 -4
-25 -10 -25 -5 0 -10 5 -10 10 0 6 -7 10 -16 10 -11 0 -14 6 -9 20 3 11 2 20
-3 20 -6 0 -13 -12 -18 -27 -5 -20 -8 -23 -11 -11 -3 10 -10 15 -19 11 -8 -3
-14 0 -14 6 0 6 10 11 23 11 20 1 20 2 4 11 -22 13 -37 4 -37 -22 0 -10 -4
-19 -9 -19 -4 0 -7 12 -5 28 l4 27 -14 -30 -14 -30 -5 25 c-4 24 -4 24 -6 -3
-1 -25 -3 -27 -16 -13 -11 11 -13 21 -6 39 6 14 7 28 3 33 -4 4 1 4 10 1 10
-4 56 -14 104 -22z m591 13 c-2 -7 3 -18 12 -25 13 -9 14 -14 4 -24 -11 -11
-15 -10 -25 0 -10 11 -10 13 0 7 18 -11 14 5 -5 20 -16 12 -16 15 -3 24 20 13
23 12 17 -2z m-447 -8 c0 -5 -4 -10 -10 -10 -5 0 -10 5 -10 10 0 6 5 10 10 10
6 0 10 -4 10 -10z m410 -9 c0 -11 3 -27 7 -37 4 -12 3 -15 -5 -10 -7 4 -12 16
-12 27 0 10 -4 19 -9 19 -4 0 -6 -11 -4 -24 4 -20 1 -24 -13 -21 -11 2 -23 4
-28 4 -4 1 -6 8 -2 16 3 8 1 15 -4 15 -6 0 -10 -10 -10 -23 0 -18 -5 -23 -22
-22 -15 1 -22 8 -20 19 2 9 -2 16 -8 16 -5 0 -10 -12 -10 -27 0 -20 -3 -24 -9
-14 -5 7 -13 11 -19 7 -6 -3 -13 -2 -17 3 -3 5 3 14 12 20 16 9 16 10 -4 11
-19 0 -23 -6 -24 -32 -2 -31 -2 -31 -6 -5 -2 15 -9 27 -14 27 -5 0 -6 -12 -3
-27 6 -22 4 -25 -10 -20 -11 5 -15 3 -10 -4 4 -7 1 -10 -7 -7 -8 3 -15 10 -15
16 -1 7 -3 15 -4 20 -1 4 -2 10 -1 15 0 4 -3 7 -9 7 -5 0 -10 -11 -10 -24 0
-20 -4 -23 -21 -19 -14 4 -19 12 -16 24 3 11 1 19 -4 19 -5 0 -9 -11 -9 -25 0
-14 -5 -25 -11 -25 -6 0 -9 17 -7 42 3 48 26 62 57 34 16 -15 31 -15 129 -6
61 6 121 14 134 20 34 13 38 12 38 -9z"/>
<path d="M14245 12940 c-3 -5 -1 -10 4 -10 6 0 11 5 11 10 0 6 -2 10 -4 10 -3
0 -8 -4 -11 -10z"/>
<path d="M13620 12909 c0 -5 5 -7 10 -4 6 3 10 8 10 11 0 2 -4 4 -10 4 -5 0
-10 -5 -10 -11z"/>
<path d="M13680 12905 c-8 -9 -8 -15 -2 -15 12 0 26 19 19 26 -2 2 -10 -2 -17
-11z"/>
<path d="M13790 12930 c0 -5 9 -10 21 -10 11 0 17 5 14 10 -3 6 -13 10 -21 10
-8 0 -14 -4 -14 -10z"/>
<path d="M13018 12983 c-31 -35 -108 -223 -108 -262 0 -6 13 -11 30 -11 16 0
62 -9 102 -19 40 -11 89 -22 108 -25 36 -6 80 10 87 31 6 18 -40 44 -114 64
-37 10 -71 23 -76 28 -7 7 3 42 27 100 21 49 35 94 31 100 -10 17 -70 13 -87
-6z"/>
<path d="M14544 12987 c-3 -8 11 -54 31 -102 20 -48 33 -91 28 -95 -4 -5 -40
-18 -80 -29 -39 -12 -81 -29 -93 -39 -27 -22 -18 -48 18 -55 27 -6 151 16 199
34 13 5 40 9 60 9 41 0 41 -2 -8 135 -43 119 -65 149 -112 153 -25 2 -39 -1
-43 -11z"/>
<path d="M3458 14922 c-15 -2 -41 -16 -58 -32 -30 -28 -31 -30 -28 -117 l3
-87 39 -9 c50 -12 109 5 131 39 26 40 30 122 8 163 -19 37 -47 49 -95 43z"/>
<path d="M3043 14910 c-18 -10 -39 -33 -48 -51 -20 -38 -23 -111 -5 -144 25
-47 90 -55 146 -18 23 14 24 21 24 118 l0 103 -31 6 c-45 9 -51 8 -86 -14z"/>
<path d="M13463 8000 c-52 -21 -78 -128 -46 -189 10 -19 25 -39 34 -44 24 -15
84 1 113 30 24 24 26 33 26 108 l0 83 -31 11 c-37 13 -66 13 -96 1z"/>
<path d="M7145 8116 c-60 -27 -97 -97 -98 -187 -1 -111 70 -185 153 -160 69
20 120 108 120 203 -1 50 -34 115 -72 138 -38 23 -61 24 -103 6z"/>
<path d="M8831 7984 c-59 -49 -66 -152 -14 -200 65 -61 163 6 163 111 0 98
-81 147 -149 89z"/>
<path d="M9735 7988 c-29 -23 -55 -74 -55 -108 0 -18 7 -17 78 22 128 71 121
65 93 88 -31 26 -81 26 -116 -2z"/>
<path d="M11589 7996 c-31 -18 -62 -77 -57 -110 3 -23 4 -23 88 25 47 27 90
50 95 52 6 3 3 12 -6 22 -22 23 -88 29 -120 11z"/>
<path d="M12691 7984 c-59 -49 -66 -152 -14 -200 65 -61 163 6 163 111 0 98
-81 147 -149 89z"/>
<path d="M14035 7988 c-48 -38 -70 -121 -44 -171 54 -105 189 -50 189 78 0 95
-78 146 -145 93z"/>
<path d="M15201 7984 c-59 -49 -66 -152 -14 -200 65 -61 163 6 163 111 0 98
-81 147 -149 89z"/>
<path d="M2650 5360 c0 -5 5 -10 11 -10 5 0 7 5 4 10 -3 6 -8 10 -11 10 -2 0
-4 -4 -4 -10z"/>
<path d="M25910 2183 c-17 -16 -33 -43 -37 -62 l-6 -35 79 43 c96 53 103 59
84 71 -31 20 -88 11 -120 -17z"/>
<path d="M2637 1713 c-12 -11 -8 -60 6 -72 8 -6 24 -12 38 -13 21 -3 24 0 21
27 -5 46 -44 80 -65 58z"/>
<path d="M2700 1610 c0 -5 5 -10 10 -10 6 0 10 5 10 10 0 6 -4 10 -10 10 -5 0
-10 -4 -10 -10z"/>
<path d="M2822 1538 c-17 -17 -15 -45 4 -52 23 -9 24 -8 24 23 0 34 -12 45
-28 29z"/>
<path d="M2680 1458 c0 -18 18 -34 28 -24 3 4 -2 14 -11 23 -16 16 -17 16 -17
1z"/>
<path d="M2748 1375 c-18 -15 -24 -26 -17 -31 12 -7 60 25 67 44 6 20 -21 13
-50 -13z"/>
<path d="M2685 1330 c3 -5 10 -10 16 -10 5 0 9 5 9 10 0 6 -7 10 -16 10 -8 0
-12 -4 -9 -10z"/>
<path d="M5070 1419 c0 -5 5 -7 10 -4 6 3 10 8 10 11 0 2 -4 4 -10 4 -5 0 -10
-5 -10 -11z"/>
<path d="M5040 1410 c0 -5 5 -10 10 -10 6 0 10 5 10 10 0 6 -4 10 -10 10 -5 0
-10 -4 -10 -10z"/>
<path d="M4970 1349 c0 -5 10 -9 22 -9 12 0 18 3 14 7 -10 11 -36 12 -36 2z"/>
<path d="M5025 1300 c-3 -5 -1 -10 4 -10 6 0 11 5 11 10 0 6 -2 10 -4 10 -3 0
-8 -4 -11 -10z"/>
<path d="M4969 1289 c-10 -6 -7 -9 14 -9 29 0 35 5 14 13 -8 3 -20 1 -28 -4z"/>
<path d="M5000 1250 c-23 -7 -23 -8 -3 -9 12 -1 25 4 28 9 3 6 5 10 3 9 -2 -1
-14 -5 -28 -9z"/>
<path d="M5025 1120 c-3 -5 1 -10 10 -10 9 0 13 5 10 10 -3 6 -8 10 -10 10 -2
0 -7 -4 -10 -10z"/>
<path d="M4890 1110 c0 -5 7 -10 16 -10 8 0 12 5 9 10 -3 6 -10 10 -16 10 -5
0 -9 -4 -9 -10z"/>
<path d="M4933 1108 c-2 -5 12 -8 31 -8 20 0 36 4 36 9 0 10 -60 9 -67 -1z"/>
<path d="M4880 1080 c0 -5 5 -10 11 -10 5 0 7 5 4 10 -3 6 -8 10 -11 10 -2 0
-4 -4 -4 -10z"/>
</g>
</svg>
